<svg id="b779fdc3-779b-46fd-812a-dd9aac54c046" data-name="Capa 1" xmlns="http://www.w3.org/2000/svg" viewBox="0 0 70 70"><defs><style>.e9dad578-a3dd-4218-950b-600942e6500c{fill:#39b4bb;}.\39 c17defd-0621-47ab-b00c-79a575beee0d{fill:#fbfdfb;}</style></defs><title>ICONO BUSQUEDA BLANCO FONDO AZUL</title><rect class="e9dad578-a3dd-4218-950b-600942e6500c" width="70" height="70"/><path class="9c17defd-0621-47ab-b00c-79a575beee0d" d="M13.9,60.3,10,56.38l0-.05,0,0L24,42.14s0,0,.05,0l.08.09A17.6,17.6,0,0,0,32,48.11a16.85,16.85,0,0,0,3.32.91c.51.09,1,.15,1.53.2a18.12,18.12,0,0,0,2.21,0,17.51,17.51,0,0,0,9.75-3.42,16.55,16.55,0,0,0,2.43-2.15,17.58,17.58,0,0,0,4.3-8,16.92,16.92,0,0,0,.35-2A16.71,16.71,0,0,0,56,30.85,17.6,17.6,0,0,0,54.29,24a17.29,17.29,0,0,0-3-4.44,17.58,17.58,0,0,0-8.34-5,16.87,16.87,0,0,0-2.33-.47L39.52,14c-.36,0-.73,0-1.1,0s-.79,0-1.19,0l-.79.06c-.49,0-1,.13-1.48.22a18.11,18.11,0,0,0-4,1.28,17.64,17.64,0,0,0-9.44,10.54,18.26,18.26,0,0,0-.68,2.81c-.07.48-.12,1-.16,1.44a16,16,0,0,0,0,1.69c0,.4,0,.79.07,1.18s.1.9.18,1.35a17.56,17.56,0,0,0,.89,3.29c.15.37.31.73.46,1.1l.07.15L19,42.42l-.05,0-.08-.13a22.44,22.44,0,0,1-1.47-3.14,21.28,21.28,0,0,1-1.05-3.85c-.09-.53-.17-1.06-.22-1.6s-.07-.88-.09-1.33,0-1,0-1.54.05-1,.1-1.47a20.91,20.91,0,0,1,.65-3.53A22,22,0,0,1,34.16,10c.53-.09,1.05-.17,1.58-.22s1.07-.1,1.6-.11h.77c.57,0,1.14,0,1.71.07a22,22,0,0,1,5,1A21.87,21.87,0,0,1,59,24.86a19.48,19.48,0,0,1,.76,3.1c.09.53.16,1.06.21,1.6a20,20,0,0,1,.07,3A21.89,21.89,0,0,1,44.48,52.47a22.3,22.3,0,0,1-2.91.67c-.62.1-1.25.17-1.88.22a22.52,22.52,0,0,1-2.6,0c-.55,0-1.1-.07-1.65-.14a21.94,21.94,0,0,1-10.33-4L25,49.16l-.08.06-.1.09q-5.37,5.43-10.75,10.84A2.11,2.11,0,0,1,13.9,60.3Z"/><path class="9c17defd-0621-47ab-b00c-79a575beee0d" d="M26.38,26a9.7,9.7,0,0,1-1-.56.44.44,0,0,1,0-.15,13.12,13.12,0,0,1,1.64-3,13.44,13.44,0,0,1,6.5-4.89,12.89,12.89,0,0,1,2.52-.62c.38-.05.76-.09,1.14-.11h.14l0,0v0c0,.39,0,.79,0,1.18,0,.07,0,.13,0,.19a.08.08,0,0,1,0,0l-.15,0a13.77,13.77,0,0,0-6.75,2.75,14.21,14.21,0,0,0-4.08,4.93Z"/></svg>