<svg id="d03aacf5-ab18-411d-a2fe-ac78ee1f1ce1" data-name="Capa 1" xmlns="http://www.w3.org/2000/svg" viewBox="0 0 70 70"><defs><style>.b2251a8f-3279-4441-9645-ff40d6dd08a6{fill:#39b4bb;}.\31 2223633-3e87-4c5e-9ffd-497edee0db73{fill:#fbfdfb;}</style></defs><title>ICONO TIEMPO BLANCO FONDO AZUL</title><rect class="b2251a8f-3279-4441-9645-ff40d6dd08a6" width="70" height="70"/><path class="12223633-3e87-4c5e-9ffd-497edee0db73" d="M60.65,35.15c0,.26,0,.73,0,1.19s0,.67-.07,1c0,.13,0,.26,0,.39,0,.35-.08.71-.13,1.06s-.11.64-.16,1a.43.43,0,0,1,0,.05c-.08.56-.23,1.11-.36,1.66s-.26,1-.41,1.45c-.26.82-.55,1.62-.89,2.41q-.36.86-.78,1.68c-.39.75-.81,1.48-1.27,2.19a27.39,27.39,0,0,1-1.62,2.26l0,.06c-.49.58-1,1.16-1.51,1.7s-1.09,1.08-1.66,1.59l-.08.07c-.51.42-1,.85-1.57,1.24s-1,.67-1.44,1-1,.61-1.5.89a26.62,26.62,0,0,1-2.82,1.3c-.51.2-1,.38-1.54.55l-.53.16-.66.19-.18.05c-.47.11-.94.23-1.41.32s-1,.19-1.53.24l-.47.07a8.44,8.44,0,0,1-1,.09l-.37,0h-.13c-.71,0-1.42.07-2.13,0L32.76,61l-.31,0-1.13-.15-1.42-.24-.75-.17-.36-.09a4.84,4.84,0,0,1-.51-.14L27.85,60a7.16,7.16,0,0,1-.75-.23l-.65-.22-.13,0c-.49-.21-1-.38-1.49-.6-.67-.31-1.34-.62-2-1a22.2,22.2,0,0,1-1.91-1.17l-.5-.34c-.67-.47-1.32-1-1.94-1.5-.34-.29-.67-.57-1-.89l-.06,0c-.5-.45-.94-1-1.41-1.43l-.14-.16-1-1.21c-.47-.59-.9-1.21-1.32-1.85l-.44-.69a24.67,24.67,0,0,1-1.38-2.59c-.24-.53-.46-1.07-.68-1.61-.29-.76-.54-1.54-.77-2.33-.17-.63-.32-1.27-.45-1.91s-.22-1.16-.29-1.75c-.06-.43-.1-.86-.14-1.29v-.05a26.12,26.12,0,0,1,0-3.31c0-.56,0-1.11.13-1.67,0-.34.07-.68.12-1s.07-.45.11-.68c.11-.64.25-1.28.41-1.92s.3-1.1.48-1.65a24.1,24.1,0,0,1,.85-2.28c.22-.51.45-1,.71-1.51s.46-.87.7-1.3c.11-.19.23-.38.35-.57A24.16,24.16,0,0,1,15,18.64c.24-.29.47-.58.71-.86s.36-.41.55-.61c.35-.37.7-.74,1.07-1.09s.69-.65,1.05-1,.77-.65,1.17-.95c.61-.46,1.24-.9,1.89-1.31s1.07-.64,1.62-.94a27,27,0,0,1,2.73-1.26c.52-.21,1.05-.38,1.59-.55.29-.1.59-.16.88-.25s.68-.18,1-.26l.12,0c.39-.11.78-.16,1.16-.24s1-.13,1.49-.2c.2,0,.4-.07.6-.08l.45,0,.55,0h.13c.7,0,1.39,0,2.08,0,.5,0,1,.06,1.48.09l.31,0,.29,0c.34,0,.68.08,1,.14s.71.11,1.06.18.44.1.67.16l.41.09.35.09.79.22.38.12.45.15c.33.1.66.23,1,.36l.71.28c.63.28,1.25.55,1.86.88l1,.53a24.46,24.46,0,0,1,2.11,1.36q.74.53,1.44,1.11c.43.35.84.72,1.24,1.1s.69.67,1,1A24.25,24.25,0,0,1,55.26,19a26.27,26.27,0,0,1,2.3,3.58c.38.71.73,1.45,1,2.2a17.49,17.49,0,0,1,.66,1.75c.16.51.32,1,.47,1.52s.19.81.29,1.21.18.94.27,1.41c0,.22.07.45.1.68.06.38.09.77.14,1.15,0,0,0,.09,0,.14C60.59,33.42,60.65,34.18,60.65,35.15ZM35,24h0V13.67c0-.12,0-.25,0-.37s-.08-.2-.21-.2H33.55a8.08,8.08,0,0,1-.86.09l-.21,0-.57.08-.37,0a3.43,3.43,0,0,1-.34.06l-.62.12-.66.15-.41.11L29,14l-.48.14q-.93.3-1.83.69a21.73,21.73,0,0,0-2.88,1.48,21.51,21.51,0,0,0-2.13,1.51l-.79.67-.67.63c-.22.21-.44.4-.65.63l-1.09,1.22c-.05.06-.11.12-.15.18-.27.35-.55.69-.8,1q-.57.8-1.05,1.62a22.5,22.5,0,0,0-2,4.36,21.37,21.37,0,0,0-.66,2.62c-.09.47-.19.95-.24,1.43,0,.18,0,.35-.06.53s0,.28,0,.42c0,.39-.06.77-.06,1.16v1.22a17.7,17.7,0,0,0,.12,1.93c0,.35.09.7.14,1.05s.12.7.2,1c.11.54.24,1.07.38,1.6a21.62,21.62,0,0,0,.88,2.49,22.21,22.21,0,0,0,1.22,2.44c.23.4.46.79.72,1.17s.66,1,1,1.42c.16.2.33.41.51.6s.49.54.72.81a10.7,10.7,0,0,0,.82.83l.62.57.53.48c.37.32.77.62,1.17.91a20.11,20.11,0,0,0,2.29,1.45A21.26,21.26,0,0,0,27,55.36c.19.08.37.17.56.23.47.16.94.34,1.43.46a2,2,0,0,1,.23.06,6.57,6.57,0,0,0,.76.21l.77.17c.28.06.56.09.83.16l.13,0,1.12.13a10.69,10.69,0,0,0,1.27.09H36.3l.49,0,.37-.06.58-.06.47,0,.23,0c.16,0,.33-.06.49-.09l.91-.19a2,2,0,0,0,.33-.08l1-.29.45-.13q.84-.29,1.65-.63a19.13,19.13,0,0,0,1.88-.91l.55-.31a10.3,10.3,0,0,0,1-.66.41.41,0,0,1,.11-.07,19.28,19.28,0,0,0,2.58-2,21.75,21.75,0,0,0,1.89-2,21.48,21.48,0,0,0,2-2.77,20.44,20.44,0,0,0,2-4.2c.24-.73.46-1.46.64-2.21.13-.53.22-1.06.32-1.59s.12-.89.17-1.34.09-1.1.09-1.66c0-.29,0-.58,0-.88s0-.76,0-1.13-.09-1-.15-1.48c0-.17-.05-.35-.08-.52,0-.35-.12-.68-.18-1-.1-.53-.23-1.05-.38-1.57s-.26-.81-.4-1.21A22,22,0,0,0,54,24.64c-.39-.73-.83-1.43-1.29-2.12a2.43,2.43,0,0,0-.14-.2l0-.06a.17.17,0,0,0-.19,0,1.33,1.33,0,0,0-.19.14L50,24,48.15,25.3l-2.76,2-2.76,2-1.92,1.41L39,32l-2,1.46-1.63,1.2-.26.18a.1.1,0,0,1-.17-.08,1.15,1.15,0,0,1,0-.19c0-.19,0-.38,0-.58V24Z"/></svg>