<svg id="c3c0528c-6643-480e-86e1-ab8840e233da" data-name="Capa 1" xmlns="http://www.w3.org/2000/svg" viewBox="0 0 70 70"><defs><style>.a672e9bb-9da0-4342-9ce0-91d67aa5a401{fill:#39b4bb;}.f5581051-d638-49f2-8f2a-5823dbedde5e{fill:#fbfdfb;}</style></defs><title>ICONO EXTRACCIÓN BLANCO FONDO AZUL</title><path class="a672e9bb-9da0-4342-9ce0-91d67aa5a401" d="M0,0H70V70H0ZM22.34,36.57h9.12l.21,0a.1.1,0,0,1,0,.1.59.59,0,0,1-.06.14c-.1.18-.19.36-.3.54l-.62,1.09-2,3.55c-.53.93-1.07,1.86-1.6,2.8l-2.52,4.4-1.84,3.22-.09.17c-.05.1,0,.16.07.23L23,53,25,54.18l.42.25,2.44,1.42.2.1a.11.11,0,0,0,.13,0l.17-.26c.56-1,1.12-2,1.69-3L32.76,48l2.94-5.15,3-5.17c.69-1.22,1.39-2.44,2.09-3.65l.3-.54c.12-.2.12-.23,0-.45l-.14-.24-1.19-2.08-2-3.52c-.39-.68-.78-1.37-1.18-2.05l-2-3.55L32.92,18.8l-2.53-4.43-1.2-2.1-.92-1.6,0-.05a.16.16,0,0,0-.21-.07l-.25.14-1.67,1-3.05,1.77-.18.12a.12.12,0,0,0-.05.16l.19.35,3.22,5.63c.75,1.3,1.49,2.61,2.24,3.92l3,5.25c.07.11.13.23.2.35l0,.09a.08.08,0,0,1-.06.09l-.15,0H13.25c-.27,0-.3,0-.31.29a1.7,1.7,0,0,0,0,.22c0,.28,0,.55,0,.83v4.55c0,.25,0,.51,0,.76v.22l0,.15a.13.13,0,0,0,.1.1l.18,0h9.1Zm30.5,16.24s0,0,0-.06a1.51,1.51,0,0,0-.11-.22c-.18-.33-.37-.66-.56-1l-.67-1.21C50.65,48.88,49.8,47.45,49,46c-.37-.66-.75-1.32-1.13-2S47.25,43,47,42.42c-.07-.12-.15-.23-.22-.34a.14.14,0,0,0-.19,0l-.14.06-.4.23-1.94,1.13-2.23,1.29-.21.13-.15.11a.13.13,0,0,0,0,.16c.06.13.13.26.2.39L43,48c.7,1.21,1.4,2.43,2.09,3.65l1.17,2,1.09,1.9c0,.08.09.15.15.23a.12.12,0,0,0,.16,0l.24-.14L49.19,55l2.18-1.27,1-.6.36-.24.06-.06S52.83,52.83,52.84,52.81Zm-6-29.51s.05,0,.06,0a.52.52,0,0,0,.1-.11c.15-.26.3-.52.44-.78L49,19.61l2.43-4.27c.52-.89,1-1.79,1.54-2.69a1.19,1.19,0,0,0,.08-.16.17.17,0,0,0,0-.17l-.21-.14-1.3-.76-2.23-1.29-.34-.21-.61-.34c-.1-.05-.16,0-.22,0l-.19.32-.66,1.14-1.57,2.75-2.09,3.65-1.5,2.64c0,.08-.09.16-.13.24a.12.12,0,0,0,0,.16l.23.15,1.73,1,2.49,1.46.27.14Zm7.31,7.15H48.18a.14.14,0,0,0-.14.14,1.88,1.88,0,0,0,0,.34c0,1.42,0,2.84,0,4.27,0,.18,0,.37,0,.55A1.49,1.49,0,0,0,48,36a.16.16,0,0,0,.14.14H60a.14.14,0,0,0,.14-.14c0-.11,0-.22,0-.34,0-1.53,0-3.07,0-4.61,0-.11,0-.22,0-.33a.45.45,0,0,0,0-.12s0-.08-.09-.09l-.18,0H54.11Z"/><path class="f5581051-d638-49f2-8f2a-5823dbedde5e" d="M22.34,36.57h-9.1l-.18,0a.13.13,0,0,1-.1-.1l0-.15v-.22c0-.25,0-.51,0-.76V30.77c0-.28,0-.55,0-.83a1.7,1.7,0,0,1,0-.22c0-.26,0-.29.31-.29H31.5l.15,0a.08.08,0,0,0,.06-.09l0-.09c-.07-.12-.13-.24-.2-.35l-3-5.25C27.73,22.31,27,21,26.24,19.7L23,14.07l-.19-.35a.12.12,0,0,1,.05-.16l.18-.12,3.05-1.77,1.67-1,.25-.14a.16.16,0,0,1,.21.07l0,.05.92,1.6,1.2,2.1,2.53,4.43,1.59,2.77,2,3.55c.4.68.79,1.37,1.18,2.05l2,3.52,1.19,2.08.14.24c.12.22.12.25,0,.45l-.3.54c-.7,1.21-1.4,2.43-2.09,3.65l-3,5.17L32.76,48l-2.7,4.72c-.57,1-1.13,2-1.69,3l-.17.26a.11.11,0,0,1-.13,0l-.2-.1-2.44-1.42L25,54.18,23,53l-.23-.14c-.1-.07-.12-.13-.07-.23l.09-.17,1.84-3.22,2.52-4.4c.53-.94,1.07-1.87,1.6-2.8l2-3.55.62-1.09c.11-.18.2-.36.3-.54a.59.59,0,0,0,.06-.14.1.1,0,0,0,0-.1l-.21,0H22.34Z"/><path class="f5581051-d638-49f2-8f2a-5823dbedde5e" d="M52.84,52.81s0,0,0,.06l-.06.06-.36.24-1,.6L49.19,55l-1.25.72-.24.14a.12.12,0,0,1-.16,0c-.06-.08-.1-.15-.15-.23l-1.09-1.9-1.17-2C44.44,50.45,43.74,49.23,43,48l-1.41-2.48c-.07-.13-.14-.26-.2-.39a.13.13,0,0,1,0-.16l.15-.11.21-.13,2.23-1.29L46,42.33l.4-.23.14-.06a.14.14,0,0,1,.19,0c.07.11.15.22.22.34.3.53.61,1.06.91,1.6s.76,1.31,1.13,2c.81,1.46,1.66,2.89,2.49,4.34l.67,1.21c.19.33.38.66.56,1a1.51,1.51,0,0,1,.11.22S52.83,52.79,52.84,52.81Z"/><path class="f5581051-d638-49f2-8f2a-5823dbedde5e" d="M46.8,23.3l-.08,0-.27-.14L44,21.67l-1.73-1L42,20.52a.12.12,0,0,1,0-.16c0-.08.08-.16.13-.24l1.5-2.64,2.09-3.65,1.57-2.75.66-1.14.19-.32c.06-.08.12-.09.22,0l.61.34.34.21,2.23,1.29,1.3.76.21.14a.17.17,0,0,1,0,.17,1.19,1.19,0,0,1-.08.16c-.51.9-1,1.8-1.54,2.69L49,19.61,47.4,22.38c-.14.26-.29.52-.44.78a.52.52,0,0,1-.1.11S46.83,23.29,46.8,23.3Z"/><path class="f5581051-d638-49f2-8f2a-5823dbedde5e" d="M54.11,30.45h5.77l.18,0s.07.05.09.09a.45.45,0,0,1,0,.12c0,.11,0,.22,0,.33,0,1.54,0,3.08,0,4.61,0,.12,0,.23,0,.34a.14.14,0,0,1-.14.14H48.18A.16.16,0,0,1,48,36a1.49,1.49,0,0,1,0-.21c0-.18,0-.37,0-.55,0-1.43,0-2.85,0-4.27a1.88,1.88,0,0,1,0-.34.14.14,0,0,1,.14-.14h5.93Z"/></svg>