<svg id="0143a8e6-0f9b-482b-b43e-4511f20d0a63" data-name="Capa 1" xmlns="http://www.w3.org/2000/svg" viewBox="0 0 70 70"><defs><style>.\35 d450bc3-d058-4b8d-babf-bd5009fd7105{fill:#39b4bb;}.\37 0f4636f-ee92-4f9a-80ed-9caf6cf4cff6{fill:#fbfdfb;}</style></defs><title>ICONO CONEXIÓN BLANCO FONDO AZUL</title><rect class="5d450bc3-d058-4b8d-babf-bd5009fd7105" width="70" height="70"/><path class="70f4636f-ee92-4f9a-80ed-9caf6cf4cff6" d="M56.24,35.21s0,0,0-.06a.86.86,0,0,0-.07-.1l-.22-.23-1.38-1.39-2.19-2.2c-.61-.62-1.22-1.25-1.84-1.87L48,26.82l-1.89-1.91-2.48-2.5-.17-.17a.15.15,0,0,0-.2,0,.52.52,0,0,0-.11.1l-2.38,2.38-1.87,1.9q-1.23,1.29-2.49,2.55L34.6,31,33,32.64l-2.14,2.17-.09.09a.19.19,0,0,0,0,.3l.14.14.29.29,1.06,1.06c.08.08.15.17.22.25a.11.11,0,0,1,0,.14l-.15.18L31.08,38.5l-2,2c-.35.34-.69.7-1,1.05a.9.9,0,0,1-.18.15.12.12,0,0,1-.14,0,.69.69,0,0,1-.13-.11l-.31-.31-.8-.81-2.29-2.3-1.84-1.86-.92-.94a1.45,1.45,0,0,1-.16-.18.13.13,0,0,1,0-.16c.06-.07.12-.15.19-.22l.61-.62,1.63-1.65L26.24,30l1.6-1.65,1.47-1.49c.82-.83,1.64-1.67,2.47-2.5l1.88-1.92,1.91-1.93,1.81-1.85L40,15.94l1.67-1.69L42.92,13l.45-.47c.29-.28.26-.3.55,0,.55.55,1.09,1.1,1.63,1.66l1.6,1.62L49.28,18l1,1,2.61,2.63L54,22.73l2.64,2.67c.57.56,1.13,1.13,1.69,1.7L61.14,30l1.45,1.46,2.26,2.3.94.95.18.19a.17.17,0,0,1,0,.26.86.86,0,0,1-.13.14l-1,1L63.17,38,60.65,40.5l-1.86,1.88-3.14,3.17c-.62.63-1.25,1.26-1.87,1.9L51.27,50l-1.84,1.86-2.52,2.55-1.27,1.3L43.9,57.45l-.21.2a.15.15,0,0,1-.2,0l-.14-.13-1.77-1.8-.7-.7-1.56-1.57-2-2-.15-.16-.08-.09a.19.19,0,0,1,0-.27l.09-.11c.09-.08.17-.17.26-.26l1.65-1.67c.48-.48.95-1,1.42-1.45l.67-.67a1.14,1.14,0,0,1,.16-.15.14.14,0,0,1,.14,0,.69.69,0,0,1,.13.11l.24.24,1,1,.14.16.12.12a.15.15,0,0,0,.18,0,.94.94,0,0,0,.12-.09l2-2,.7-.71,2.27-2.28c.84-.86,1.69-1.72,2.54-2.57l1.17-1.19,2.69-2.72,1.06-1.07.32-.33a.94.94,0,0,0,.09-.12S56.23,35.23,56.24,35.21Z"/><path class="70f4636f-ee92-4f9a-80ed-9caf6cf4cff6" d="M48.55,34.88s0,0,0,0a1.06,1.06,0,0,1-.17.2l-.52.54L45.57,38l-1.89,1.91-1.86,1.87-2.46,2.49-1.89,1.91-2.56,2.58L32.45,51.2l-2.54,2.57-1.82,1.84-1.69,1.7-.12.12-.07.07a.19.19,0,0,1-.23,0l-.12-.11-.94-1-.8-.81L22.48,54l-2.54-2.57c-.6-.6-1.2-1.2-1.79-1.81L15.56,47l-1.74-1.76-2.76-2.79L9.71,41.08c-1-1-2-2-3-3.07L5,36.31l-.86-.88L4,35.28s0-.05,0-.09a.54.54,0,0,1,.1-.16l.18-.19,1.44-1.45c.93-.93,1.85-1.87,2.78-2.81l1.79-1.8,2.58-2.6,1.8-1.83,2.56-2.58L19,20l2.75-2.78,1.35-1.36L26,12.93c.1-.09.19-.19.29-.29l.17-.14c.1-.07.13-.07.23,0l.22.22,1.89,1.91,2.14,2.18,1.5,1.52.72.76a.83.83,0,0,1,.11.15.12.12,0,0,1,0,.14.83.83,0,0,1-.08.12l-.34.37L32,20.7l-2,2.13c-.23.24-.44.48-.67.71a.86.86,0,0,1-.14.13.14.14,0,0,1-.16,0,.34.34,0,0,1-.09-.08L27.7,22.31l-.47-.49c-.11-.12-.2-.16-.34,0s-.29.29-.43.43L24.69,24,22,26.79l-1.35,1.36-2.25,2.27-1.84,1.86-2.29,2.31a2.62,2.62,0,0,0-.22.25A.14.14,0,0,0,14,35a.69.69,0,0,0,.11.13c.16.17.32.34.49.5l1.57,1.59,2.66,2.68,1.52,1.54,2.83,2.85L25,46.17l1.64,1.65a.54.54,0,0,0,.16.14A.12.12,0,0,0,27,48l.13-.1.38-.38,1.67-1.69,2.73-2.75,1.64-1.66,2.73-2.75,1.5-1.52,1.82-1.84.13-.15a.18.18,0,0,0,0-.2,1.15,1.15,0,0,0-.14-.17l-.88-.87-.82-.83a2,2,0,0,1-.19-.22.14.14,0,0,1,0-.17l.1-.12.34-.34,2.34-2.39c.45-.45.89-.91,1.34-1.37a.69.69,0,0,1,.13-.11.15.15,0,0,1,.2,0l.11.09L45,31.21l1.38,1.39,1.93,1.95a2.16,2.16,0,0,1,.25.27S48.54,34.86,48.55,34.88Z"/></svg>