<svg id="e1d29eaf-a492-4fd0-b428-581f06b0a2a1" data-name="Capa 1" xmlns="http://www.w3.org/2000/svg" viewBox="0 0 235.19 128.04"><defs><style>.fafd1710-d656-4ab0-8b4f-a1673575c115{fill:#feffff;}.\39 61f749d-ecbe-4465-a64e-1753278cebf5{fill:#030303;}.b16a25a5-c5cb-4bf9-985e-63f62d1cad9a{fill:#a4e5e7;}.cbd34448-8951-47c6-8d94-3b3ef1864f83{fill:#a3e5e7;}</style></defs><title>LOGO</title><path class="fafd1710-d656-4ab0-8b4f-a1673575c115" d="M235.32,128.18H.14V.14H235.32ZM98,85.6a40.38,40.38,0,0,0,4.68.06,2.3,2.3,0,0,0,.32,0v-36c0-.13,0-.25,0-.38s0-.25-.11-.35l-.22,0H96.61l-.06,0-.07.06c-.07.16-.15.35-.22.54q-2.6,7-5.18,14.09l-4.35,11.8c0,.12-.12.23-.21.42L77.05,48.84H69.71s0,.06,0,.08a1,1,0,0,0,0,.24q0,18.17,0,36.33a.14.14,0,0,0,0,.06l0,0a.85.85,0,0,0,.17,0h4.45a2,2,0,0,0,.3-.06V59.74c0-.21,0-.42,0-.63s0-.18.15-.16Q79,71.09,83.28,83.27h1.83c.63,0,1.26,0,1.88,0s1.2,0,1.81,0l.19-.49q3.63-9.8,7.25-19.59l1.5-4c0-.1.07-.2.21-.15a.2.2,0,0,1,0,.07s0,.08,0,.12V85.48a.14.14,0,0,0,0,.06Zm77.29,0a2.81,2.81,0,0,0,.76,0c3.42,0,6.85,0,10.27,0a23.33,23.33,0,0,0,4.17-.36,8.21,8.21,0,0,0,5.05-2.89A9.75,9.75,0,0,0,196.92,72a9.56,9.56,0,0,0-4.53-4.75c-.61-.31-1.25-.58-1.87-.87a3.15,3.15,0,0,1-.31-.2c.39-.2.75-.38,1.09-.57a10.2,10.2,0,0,0,4.88-5.72,8.12,8.12,0,0,0,.15-5.11A7.51,7.51,0,0,0,192.09,50a13.39,13.39,0,0,0-4.65-1.13c-1.38-.11-2.76-.1-4.13-.1h-7.46a.82.82,0,0,0-.53.1c-.08.59-.13,33.77,0,36.45A2,2,0,0,0,175.31,85.64Zm-41.26-4.93-.1,0H118.1l0,0,0,0a.53.53,0,0,1,0-.12,2.63,2.63,0,0,1,.09-.3,13.59,13.59,0,0,1,3.1-4.8c.79-.77,1.58-1.54,2.41-2.28,1.79-1.6,3.61-3.17,5.41-4.75a21.82,21.82,0,0,0,2-2,13.48,13.48,0,0,0,2.07-3.11,11.34,11.34,0,0,0,.95-6,9,9,0,0,0-.77-3A10,10,0,0,0,127,48.62a15.68,15.68,0,0,0-5.58-.59,26.07,26.07,0,0,0-8.59,2c0,.1,0,.18,0,.26,0,1.57,0,3.13,0,4.7a.13.13,0,0,0,0,.06l.09,0,.19-.08,1.11-.58a20,20,0,0,1,4.88-1.89,10.69,10.69,0,0,1,4.84-.07,5.25,5.25,0,0,1,4.16,4,8.45,8.45,0,0,1-.22,4.57,10.71,10.71,0,0,1-2.12,3.8,31.47,31.47,0,0,1-3,3.08c-1,.87-1.93,1.73-2.87,2.61A42.92,42.92,0,0,0,115,76a23.22,23.22,0,0,0-2.71,4.41,2.59,2.59,0,0,0-.28,1.08v3.76c0,.14.05.28.08.45h21.75a1.57,1.57,0,0,0,.23,0C134.09,85.14,134.11,81.52,134.05,80.71Zm36.09-31.85a2.52,2.52,0,0,0-.67,0H140a3.43,3.43,0,0,0-.34.06,26.28,26.28,0,0,0,.06,4.24h11.63a1.11,1.11,0,0,1,.69.08V81.07c0,.77,0,1.54,0,2.32s0,1.53,0,2.29c.68.07,5.31.06,5.81,0,0-.22,0-.44,0-.67V53.49c0-.12,0-.23,0-.39h11c.41,0,.82,0,1.22,0A34.84,34.84,0,0,0,170.14,48.86Zm-105.61,0H34.15a.86.86,0,0,0-.23,0,34,34,0,0,0,0,4.17l.6,0H45.76c.17,0,.37-.07.57.15v32.4a2.11,2.11,0,0,0,.28,0H51.8a1.07,1.07,0,0,0,.27-.07c0-.06,0-.08,0-.1a.49.49,0,0,0,0-.12V53.55a2,2,0,0,1,0-.25.53.53,0,0,1,0-.13.13.13,0,0,1,0-.06s0,0,.09-.08H63.38a11.22,11.22,0,0,0,1.15,0ZM167.3,54.6a1.42,1.42,0,0,0,.25.69L170,60.17c.67,1.32,1.32,2.65,2,4a1.77,1.77,0,0,1,.2.9,1.91,1.91,0,0,1-.32.87L154.8,100l-6.05,12.09a1.87,1.87,0,0,1-.42.67h-65c-.8,0-.8,0-1.15-.7Q76.1,100,70.05,87.84a3.93,3.93,0,0,0-.26-.5A.64.64,0,0,0,69,87a1,1,0,0,1-.3,0c-.3,0-.43-.1-.43-.4,0-.52,0-1,0-1.56A2.89,2.89,0,0,0,68,83.67q-3-5.91-5.92-11.82c-1-2-2-4.07-3-6.1a1.87,1.87,0,0,1-.25-.83,1.7,1.7,0,0,1,.24-.83l3.84-7.67q.36-.7.69-1.41a2.2,2.2,0,0,0,.12-.41,1.84,1.84,0,0,0-.89-.08c-.76,0-.69-.08-1,.63l-4.08,8.18-.51,1a1.18,1.18,0,0,0,0,1.18c.55,1,1,2,1.55,3.07L81,113.35c.09.17.17.34.26.5a1,1,0,0,0,.91.55H148.8a1,1,0,0,0,.82-.51c.08-.15.15-.3.23-.44.57-1.16,1.15-2.32,1.73-3.48l21.9-43.8c.12-.25.23-.49.33-.75a1.57,1.57,0,0,0-.13-1.44c-.14-.25-.28-.51-.41-.77l-4-8.06c-.35-.71-.28-.64-1-.63A1.83,1.83,0,0,0,167.3,54.6Zm6.61,16.94-.12,0a8.11,8.11,0,0,0-.49.92l-21.68,43.36c-.07.15-.15.3-.23.45a1,1,0,0,1-.76.58,4.87,4.87,0,0,1-.93.08H81.1a1.37,1.37,0,0,1-1.31-.81c-.05-.09-.09-.18-.14-.28l-5.83-11.65q-9.5-19-19-38c-.12-.25-.22-.5-.33-.75a1.15,1.15,0,0,1,0-1c.14-.26.26-.52.39-.78q2.12-4.2,4.21-8.41c.09-.18.16-.37.26-.6a6.64,6.64,0,0,0-1.6,0,.42.42,0,0,0-.23.19,3.75,3.75,0,0,0-.24.44C56.67,56.46,56,57.75,55.38,59l-1.54,3.08A3.86,3.86,0,0,0,53.38,64c0,.58,0,1.17,0,1.75a3.57,3.57,0,0,0,.4,1.69c2.18,4.39,4.35,8.79,6.55,13.18,1.71,3.43,3.46,6.85,5.18,10.28.67,1.33,1.29,2.67,2,4,2.14,4.27,4.3,8.53,6.44,12.8.58,1.16,1.13,2.33,1.7,3.49,1,2.08,2.07,4.15,3.1,6.23.08.14.15.29.23.44a.91.91,0,0,0,.52.42,2.43,2.43,0,0,0,.8.09h70.55c.23,0,.46,0,.69,0a1,1,0,0,0,.93-.62c.06-.13.13-.26.2-.39l14.79-29.58,5.85-11.7a5.27,5.27,0,0,0,.67-2.83c0-.46,0-.92,0-1.38C173.93,71.78,173.92,71.66,173.91,71.54ZM53.42,72.87c0,.28,0,.4,0,.52,0,.61,0,1.22,0,1.82a3.39,3.39,0,0,0,.4,1.68q11.14,22.26,22.27,44.52c.08.15.16.3.23.45a.68.68,0,0,0,.42.34,2.46,2.46,0,0,0,.93.09h76.11a1.1,1.1,0,0,0,1-.56,5.85,5.85,0,0,0,.28-.56l14.62-29.24q1.86-3.69,3.7-7.4a5.27,5.27,0,0,0,.62-2.64c0-.48,0-1,0-1.44,0-.09.06-.21-.09-.26a3,3,0,0,0-.55.9q-9.76,19.53-19.51,39.05a1,1,0,0,1-1.06.65H78.11a.81.81,0,0,1-.89-.54,1.47,1.47,0,0,0-.1-.22L54,73.81c-.11-.23-.22-.45-.34-.67A3.21,3.21,0,0,0,53.42,72.87Zm3.25-25.65c.5,0,1,0,1.41,0a.45.45,0,0,0,.36-.23l.32-.61q8.7-17.43,17.41-34.84c.25-.51.48-1,.72-1.53a2.87,2.87,0,0,1,.2-.39A1,1,0,0,1,78.16,9h75.21a3.19,3.19,0,0,1,.58.93l17,33.94c.87,1.74,1.73,3.48,2.61,5.21.08.16.11.36.34.46.05-.28.1-.54.13-.79a1.59,1.59,0,0,0-.06-.37,1.1,1.1,0,0,1,.22-.94,2.34,2.34,0,0,0,.15-.27c-.15-.32-.29-.62-.44-.92l-14.45-28.9-4.15-8.29c-.17-.35-.31-.73-.51-1.07-.35-.62-.37-.62-1.09-.62H76.75a.45.45,0,0,0-.44.28c-.12.24-.25.48-.37.73l-16,32-3,6A1.27,1.27,0,0,0,56.67,47.22Zm4.78,0h.86c.72,0,.74.1,1.14-.71q3-6,6-12L79.89,13.64c.3-.61.3-.61,1-.61H150.8a.45.45,0,0,1,.45.27c.13.27.26.53.4.79Q159.58,30,167.53,45.85c.15.32.32.63.47.95a.64.64,0,0,0,.69.43c.2,0,.41,0,.62,0s.38.05.57-.1a1.94,1.94,0,0,0-.26-.61Q161,29.35,152.45,12.18c-.37-.74-.25-.66-1.09-.66H79.51a.53.53,0,0,0-.51.3l-.32.61-11.4,22.8-5.49,11A2.46,2.46,0,0,0,61.45,47.23Zm4.48,2.65.14,0,.34-.66q3.39-6.81,6.8-13.61,4.44-8.88,8.87-17.76c.09-.17.17-.34.26-.5A.66.66,0,0,1,83,17h65.09a.54.54,0,0,1,.51.29c.12.2.21.41.31.62Q156,32.11,163.05,46.29c.56,1.12.24.92,1.53.94.18,0,.38.06.55-.12a1.29,1.29,0,0,0-.22-.62l-3-6.05-12-24a4.3,4.3,0,0,0-.32-.6.69.69,0,0,0-.75-.32,3.77,3.77,0,0,1-.75,0H87a3.1,3.1,0,0,1-.68,0,4.18,4.18,0,0,0-1-.07H82.6c-.69,0-1.29.18-1.51.95,0,.06-.06.11-.08.17Q73.78,31,66.56,45.45c-.26.5-.5,1-.71,1.44C66,47.93,65.87,48.91,65.93,49.88Zm6.23-2.65c.16-.31.29-.54.41-.79Q75.94,39.71,79.31,33c1.79-3.59,3.56-7.18,5.34-10.77.12-.23.25-.44.37-.66A.92.92,0,0,1,85.9,21c.21,0,.42,0,.63,0h59.13a.54.54,0,0,1,.52.29c.1.18.19.37.28.56L158.7,46.37,159,47a.42.42,0,0,0,.4.24h1.07a.8.8,0,0,0,.26-.09,2,2,0,0,0-.29-.73l-8.79-17.59q-2.16-4.3-4.31-8.62a1.57,1.57,0,0,0-.43-.65H85.32a4.13,4.13,0,0,1-.5,0A.86.86,0,0,0,84,20l-.17.34L72.42,43.12c-.59,1.2-1.19,2.39-1.79,3.59a5,5,0,0,0-.18.48,3.25,3.25,0,0,0,.36,0Zm3-.09a1.58,1.58,0,0,0,.82.09c.82,0,.8.11,1.24-.76L87.64,25.7c.36-.72.27-.65,1-.65h53.55c1.12,0,1.12,0,1.62,1Q149,36.31,154.1,46.56c.11.22.23.43.35.66h1.34a.75.75,0,0,0,.2-.1,1.46,1.46,0,0,0-.25-.67L148.36,31.6l-3.58-7.17c-.08-.15-.14-.31-.23-.45a.94.94,0,0,0-.64-.46,8.5,8.5,0,0,0-.87-.07H87.92a1.34,1.34,0,0,0-1.41.88Q81.2,35,75.85,45.66c-.19.38-.37.75-.55,1.13A1.61,1.61,0,0,0,75.2,47.14Zm83.17,40.27a1.84,1.84,0,0,0-.83-.07c-.88,0-.73-.1-1.13.69q-4.95,9.91-9.91,19.83l-.25.5a.75.75,0,0,1-.58.44,5.29,5.29,0,0,1-.8.08H86.43a1.68,1.68,0,0,1-1.71-1.06c-2.19-4.45-4.42-8.89-6.64-13.33l-3.39-6.78a1.38,1.38,0,0,0-.42-.63,8.22,8.22,0,0,0-1.56,0,2.21,2.21,0,0,0,.28.72q5.39,10.79,10.77,21.57a1.45,1.45,0,0,0,1.62,1h60.94a1.09,1.09,0,0,0,1-.6,2.7,2.7,0,0,0,.17-.34c.31-.64.6-1.28.92-1.92q4.8-9.63,9.63-19.27c.09-.18.19-.37.27-.56A.92.92,0,0,0,158.37,87.41ZM47.71,110c-.12-.26-.19-.45-.29-.63l-1.89-3.54-2.08-3.92-2.2-4.14c-.69-1.29-1.37-2.58-2-3.87s-1.49-2.8-2.23-4.2-1.36-2.54-2-3.81l-2.43-4.59c-.64-1.22-1.3-2.43-1.94-3.65-.77-1.45-1.55-2.91-2.31-4.37S26.76,70.4,26,69c-.05-.11-.12-.22-.18-.33l-1.51-2.81a1.66,1.66,0,0,1,0-1.67l.32-.61c.24-.41.5-.82.72-1.24l2.54-4.81c.65-1.22,1.3-2.43,1.94-3.65q1.14-2.13,2.26-4.26l2.14-4,2.23-4.2c.67-1.27,1.35-2.54,2-3.81s1.48-2.8,2.23-4.2l2.16-4.09q1.35-2.55,2.68-5.1c.51-1,1-1.92,1.52-2.88.38-.72.78-1.42,1.17-2.14a.7.7,0,0,0,.16-.57,14.42,14.42,0,0,0-1.47,0,.43.43,0,0,0-.29.2c-.16.25-.28.52-.41.77-.75,1.38-1.5,2.75-2.24,4.13s-1.37,2.58-2.06,3.87-1.46,2.76-2.2,4.14l-2.19,4.15-2.18,4.09-2.08,3.92-2.17,4.09L29,51.84l-2.17,4.09L24.5,60.41c-.71,1.33-1.41,2.66-2.13,4a1,1,0,0,0,0,1.11c.51.93,1,1.88,1.49,2.82.82,1.53,1.65,3.05,2.47,4.57l1.77,3.31,2.37,4.48,2,3.81q1.14,2.13,2.26,4.26l2.14,4L39,96.7c.73,1.39,1.47,2.77,2.2,4.15q1.22,2.3,2.42,4.59c.65,1.24,1.28,2.49,1.94,3.72.15.3.34.57.51.85Zm-8,0c-.13-.28-.2-.47-.3-.65-.6-1.14-1.22-2.28-1.82-3.42q-1.11-2.07-2.2-4.14t-2.23-4.21L30.73,93c-.73-1.38-1.47-2.76-2.2-4.15q-1.29-2.46-2.6-4.92l-1.11-2.1-2.41-4.46-2-3.75L18,69.16l-2-3.81c-.11-.21-.21-.41-.31-.62a1.12,1.12,0,0,1,.06-1.12q1.14-2.09,2.26-4.19c.69-1.29,1.37-2.58,2-3.87s1.45-2.72,2.17-4.08,1.41-2.66,2.12-4l2.14-4,2.11-4q1.14-2.16,2.29-4.32L33,31.24c.72-1.36,1.45-2.72,2.17-4.09s1.46-2.81,2.19-4.22l.11-.22,2-3.68a3.25,3.25,0,0,0,.12-.43,7.89,7.89,0,0,0-1.68,0c-.19.33-.39.64-.56,1-.68,1.27-1.36,2.54-2,3.81s-1.49,2.8-2.23,4.2l-2.17,4.09-2.2,4.15-2.06,3.86q-1.1,2.09-2.2,4.15L22.27,48,20.09,52,18,56q-1.31,2.49-2.62,5c-.49.92-1,1.84-1.48,2.76a.91.91,0,0,0-.06.83c.06.14.13.26.2.39l1.8,3.37,2.25,4.25,2.15,4,2.11,4c.71,1.34,1.43,2.68,2.14,4s1.41,2.65,2.11,4l2.15,4,2.14,4,2.22,4.21q1.16,2.15,2.29,4.31l2,3.94a4.31,4.31,0,0,0,.58.9l.37,0Zm-8.23,0c-.12-.27-.19-.46-.29-.64l-1.63-3c-.62-1.16-1.25-2.31-1.86-3.47q-1.15-2.16-2.29-4.32l-2.11-4L21,90.3c-.66-1.26-1.33-2.51-2-3.76l-2.23-4.2C16,80.88,15.26,79.43,14.5,78L11.93,73.1c-.68-1.3-1.37-2.58-2.06-3.87S8.62,66.87,8,65.7a1.39,1.39,0,0,1,0-1.48c.48-.83.93-1.67,1.39-2.52l2.19-4.15,2.21-4.14,2.05-3.87L18,45.4l2.06-3.87q1.11-2.1,2.23-4.2c.67-1.27,1.35-2.54,2-3.82q1.19-2.2,2.35-4.42c.77-1.46,1.54-2.91,2.3-4.37.57-1.07,1.12-2.15,1.69-3.22.4-.75.82-1.5,1.23-2.25a1.62,1.62,0,0,0,.26-.63.67.67,0,0,0-.19-.06H30.78a.49.49,0,0,0-.49.31c-.21.41-.44.8-.66,1.21l-1.86,3.47c-.73,1.36-1.45,2.73-2.17,4.09l-2.09,3.93L21.2,35.92l-2.06,3.87L16.92,44c-.68,1.27-1.36,2.54-2,3.82l-2.46,4.64c-.63,1.2-1.28,2.39-1.91,3.59L8.06,60.69C7.39,62,6.72,63.23,6,64.5a.78.78,0,0,0,0,.82c.32.56.62,1.14.92,1.71l2.15,4,2.11,4,2.14,4c.71,1.32,1.41,2.65,2.12,4l2.31,4.36,2.06,3.87c.73,1.38,1.46,2.77,2.2,4.15s1.37,2.57,2,3.87c.92,1.73,1.83,3.47,2.74,5.2.57,1.09,1.13,2.19,1.71,3.28.25.48.51.95.77,1.43.16.27.33.52.49.79A10.56,10.56,0,0,0,31.47,110Zm167.3-91.34a2.82,2.82,0,0,0,.32.71l1.32,2.42,2.14,4,2.28,4.31,2.09,3.93c.72,1.36,1.45,2.72,2.17,4.09l2.08,3.92,2.18,4.09,2.11,4,2.25,4.25,2.4,4.54c.72,1.39,1.43,2.78,2.16,4.17.21.4.44.8.66,1.2a.84.84,0,0,1,0,.84l-.2.39L221,68.72l-2.2,4.14-2.08,3.92-2.17,4.09-2.09,3.93-2.2,4.14-2.05,3.87-2.34,4.42-1.17,2.22q-1.25,2.34-2.48,4.7l-1.57,3-.19.33c-.38.69-.76,1.39-1.13,2.09a.36.36,0,0,0,0,.44,3.85,3.85,0,0,0,.77,0,2.68,2.68,0,0,0,.8,0,1.33,1.33,0,0,0,.12-.16l1.72-3.19c.68-1.27,1.36-2.54,2-3.81s1.5-2.84,2.26-4.26c.66-1.25,1.33-2.5,2-3.75l2.25-4.26,2.14-4q1.13-2.1,2.23-4.2l2-3.81,2.23-4.2c.72-1.36,1.45-2.72,2.16-4.09.6-1.12,1.18-2.26,1.77-3.38.18-.33.37-.66.54-1s.38-.74.56-1.1c-.28-.65-.61-1.23-.93-1.81-.64-1.17-1.26-2.35-1.89-3.53s-1.36-2.53-2-3.81-1.49-2.8-2.23-4.2-1.45-2.72-2.17-4.09-1.39-2.61-2.09-3.92l-2.17-4.09-2.08-3.92c-.73-1.36-1.45-2.73-2.17-4.09l-2.37-4.48c-.84-1.59-1.67-3.18-2.51-4.76l-1.48-2.83a1.9,1.9,0,0,0-.47-.65h-1.44S198.84,18.6,198.77,18.65Zm-154.55,0a1.29,1.29,0,0,0-.28-.06c-.35,0-.71,0-1.06,0a.57.57,0,0,0-.58.37Q41.19,21,40.07,23.12l-2,3.75Q36.94,29,35.82,31.13c-.67,1.25-1.34,2.5-2,3.75s-1.49,2.8-2.23,4.2l-2.31,4.37-2.59,4.93c-.53,1-1.05,2-1.57,3l-1.06,2c-.81,1.51-1.63,3-2.43,4.52-.69,1.29-1.34,2.6-2,3.89-.38.72-.78,1.42-1.17,2.13-.19.35-.36.71-.54,1,.09.19.15.35.23.49.28.54.57,1.07.85,1.6l2.15,4,2.11,4q1.1,2,2.17,4.09t2.2,4.14c.73,1.38,1.47,2.76,2.2,4.15s1.37,2.58,2.06,3.86,1.46,2.77,2.2,4.15l2,3.87,2.4,4.53c.68,1.3,1.34,2.6,2,3.89.3.57.61,1.14.92,1.71.11.2.24.38.35.55a3.62,3.62,0,0,0,1.65-.08,3.25,3.25,0,0,0-.36-.78c-.48-.9-1-1.79-1.46-2.69-.64-1.2-1.28-2.39-1.91-3.59l-2.29-4.31-2.11-4Q34.18,92.4,33,90.24l-2-3.7-2.31-4.36-1.08-2.05-2.74-5.21-1.71-3.27-1-2c-.73-1.34-1.45-2.68-2.19-4a1.2,1.2,0,0,1,0-1.24c.54-1,1.05-2,1.58-3L23.93,57l2.17-4.09q1.09-2.07,2.2-4.14l2.05-3.87q1.11-2.07,2.2-4.14l2.2-4.15,2.17-4.09L39,28.61q1.43-2.68,2.83-5.38L42,22.9,44.06,19C44.12,18.91,44.16,18.77,44.22,18.61ZM195,18.56a3.15,3.15,0,0,0,.13.44c.19.35.39.69.57,1l2,3.76c.71,1.34,1.43,2.68,2.14,4s1.5,2.84,2.26,4.26l2.11,4,2.14,4c.72,1.34,1.43,2.69,2.14,4S210,47,210.71,48.39l2.37,4.48q1.2,2.31,2.42,4.6l1.71,3.27.15.28c.45.84.9,1.69,1.37,2.52a.8.8,0,0,1,0,.88c-.32.56-.62,1.13-.93,1.71L215.75,70c-.74,1.38-1.47,2.77-2.2,4.15L211.49,78q-1.11,2.1-2.23,4.2l-2,3.81q-1.12,2.1-2.23,4.2c-.73,1.36-1.45,2.73-2.17,4.09l-2.6,4.93-1,1.93c-.85,1.61-1.69,3.22-2.54,4.82-.64,1.22-1.3,2.43-1.94,3.65a2,2,0,0,0-.1.36,10.47,10.47,0,0,0,1.68,0l.26-.43,1.8-3.37,2.43-4.59c.64-1.22,1.29-2.43,1.94-3.64l2.14-4c.72-1.34,1.43-2.69,2.14-4l2.37-4.48,2-3.76c.78-1.47,1.56-3,2.35-4.42.63-1.2,1.27-2.39,1.91-3.59q1.28-2.45,2.57-4.87l2.08-3.93c.47-.89.45-.79,0-1.61-.66-1.25-1.34-2.5-2-3.75s-1.49-2.8-2.23-4.2l-2-3.81q-1.12-2.13-2.26-4.26l-2.11-4-2.17-4.09L205.34,35l-2.2-4.14-2-3.87c-1-1.81-1.9-3.62-2.85-5.43L196.89,19a1.4,1.4,0,0,0-.16-.26.43.43,0,0,0-.37-.2Zm-3.89,0a4,4,0,0,0,.14.44c.18.34.37.66.54,1l2.07,3.87,2.08,3.92c.72,1.36,1.45,2.72,2.17,4.09s1.48,2.8,2.23,4.2l2.17,4.09,2.08,3.92q1.16,2.16,2.29,4.32l2.22,4.2,2.57,4.87,1.71,3.28.15.27c.46.86.92,1.73,1.4,2.59a.7.7,0,0,1,0,.76L214,66q-1.11,2.1-2.23,4.2l-2,3.81-2.29,4.31c-.65,1.24-1.31,2.47-2,3.7q-1.12,2.13-2.26,4.26c-.71,1.34-1.42,2.69-2.14,4s-1.48,2.8-2.23,4.2-1.35,2.54-2,3.82c-1,1.79-1.88,3.58-2.82,5.37l-1.52,2.88a2.34,2.34,0,0,1-.15.27l-1.53,2.88a1.64,1.64,0,0,0-.06.33H192a3.27,3.27,0,0,0,.44,0,2.92,2.92,0,0,0,.21-.32l.89-1.65,2.14-4q1.07-2,2.11-4l2.15-4L202,92l2.31-4.37,2.06-3.87,2.2-4.14c.69-1.29,1.37-2.58,2-3.87.93-1.75,1.85-3.51,2.77-5.26l1.68-3.22.12-.22c.47-.86.93-1.73,1.41-2.58a.84.84,0,0,0,0-.89c-.39-.71-.76-1.43-1.14-2.15l-2.14-4-2.15-4-2.11-4q-1.12-2.13-2.26-4.26c-.71-1.34-1.42-2.69-2.14-4l-2.11-4c-.72-1.34-1.43-2.69-2.14-4s-1.41-2.66-2.12-4l-2.14-4c-.68-1.29-1.34-2.59-2-3.89-.37-.72-.76-1.43-1.14-2.15l-.12-.22a.5.5,0,0,0-.42-.24Zm-4.34,0a2.93,2.93,0,0,0,.14.37c.22.43.46.84.69,1.27.65,1.21,1.3,2.42,1.94,3.64l2.37,4.48L193,30.52c.82,1.57,1.65,3.13,2.48,4.7.52,1,1,2,1.57,3,.35.66.7,1.32,1.06,2l2.43,4.52,1.83,3.42,2.31,4.37c.7,1.3,1.4,2.61,2.09,3.92l2.74,5.21c.19.36.4.72.6,1.09.27.52.52,1.05.79,1.56a.82.82,0,0,1,0,.84c-.14.25-.29.5-.43.76-.63,1.18-1.27,2.35-1.89,3.53L206.18,74l-2.36,4.48c-.71,1.35-1.43,2.69-2.14,4s-1.41,2.66-2.12,4l-2,3.81-2,3.7c-.68,1.27-1.36,2.54-2,3.81q-1.14,2.13-2.26,4.26l-2.11,4c-.57,1.07-1.12,2.14-1.69,3.21-.08.17-.18.33-.27.49s0,.15-.08.22a4.76,4.76,0,0,0,1.78,0l.26-.47,2.08-3.92q1.11-2.1,2.23-4.2c.67-1.27,1.35-2.54,2-3.81L198,92.85c.63-1.17,1.26-2.35,1.88-3.53.8-1.49,1.58-3,2.38-4.48l2-3.81c.7-1.31,1.4-2.61,2.09-3.92s1.47-2.76,2.2-4.15L211.14,68c.45-.85.89-1.69,1.35-2.54.13-.26.28-.51.44-.78l-.62-1.1-2.08-3.92c-.73-1.39-1.47-2.77-2.2-4.15L206,51.67l-2.31-4.36q-1-2-2.08-3.93l-2.18-4.09-2.22-4.2c-.67-1.25-1.34-2.5-2-3.75l-2.43-4.6c-.83-1.56-1.65-3.13-2.48-4.7-.49-.94-1-1.89-1.48-2.83a1.9,1.9,0,0,0-.47-.65A9.63,9.63,0,0,0,186.72,18.6ZM35.79,110a5.94,5.94,0,0,0-.47-1c-.69-1.29-1.4-2.56-2.09-3.85s-1.38-2.57-2.06-3.86l-2.34-4.43c-.72-1.36-1.44-2.73-2.17-4.09s-1.37-2.58-2.06-3.86L22.52,85l-2.34-4.42-1.83-3.5c-.31-.59-.62-1.18-.94-1.76-.81-1.51-1.63-3-2.43-4.52-.6-1.12-1.18-2.25-1.77-3.38L13,67.08c-.42-.77-.83-1.54-1.24-2.31a1.3,1.3,0,0,1-.08-.17.93.93,0,0,1,.06-.73q1.15-2.15,2.3-4.3t2.34-4.42c.61-1.16,1.22-2.33,1.82-3.5l.09-.17,2.49-4.62,1.89-3.53,2.11-4c.73-1.36,1.45-2.73,2.17-4.09s1.47-2.76,2.2-4.15,1.47-2.76,2.2-4.14c.62-1.18,1.23-2.37,1.85-3.56.44-.85.89-1.69,1.34-2.54l.12-.22c.32-.56.63-1.13.94-1.7a1.24,1.24,0,0,0,.06-.37,9.2,9.2,0,0,0-1.66,0c-.58,1.08-1.17,2.14-1.74,3.2l-2,3.7L28,29.9l-1.91,3.59q-1.15,2.16-2.29,4.32l-2.11,4L19.4,46l-2,3.76-2.28,4.31c-.37.7-.75,1.4-1.11,2.1l-2.85,5.43-.61,1.1c-.26.49-.51,1-.78,1.5.09.19.17.38.27.57l1.57,2.91c.7,1.31,1.39,2.62,2.09,3.92s1.45,2.73,2.17,4.09,1.39,2.62,2.08,3.93l2.18,4.08L22.35,88q1.09,2,2.17,4.09c.7,1.3,1.39,2.61,2.09,3.92s1.45,2.72,2.17,4.09,1.49,2.8,2.22,4.2l1.91,3.66,1,1.88a2,2,0,0,0,.16.23h1.37A3.12,3.12,0,0,0,35.79,110ZM203,18.59a1.39,1.39,0,0,0,0,.32c.09.21.2.41.31.61l2.1,3.85L207.41,27l2.37,4.48c.66,1.26,1.33,2.51,2,3.76L214,39.51l2.15,4,2.22,4.2c.68,1.27,1.36,2.54,2,3.81L223.28,57l1.48,2.83c.29.53.59,1.06.87,1.59.52,1,1,1.92,1.55,2.87a.76.76,0,0,1,0,.82l-.58,1-2,3.87q-1.11,2.07-2.2,4.14L220.26,78l-2.4,4.54-2,3.7-2.28,4.31-2.11,4q-1.38,2.59-2.74,5.21l-.88,1.65q-1.15,2.16-2.29,4.32l-2.08,3.92a1.58,1.58,0,0,0-.09.36,9.18,9.18,0,0,0,1.66,0,2.14,2.14,0,0,0,.19-.26l2.08-3.92,2-3.65q1.09-2.07,2.2-4.14l2.05-3.87q1.17-2.22,2.35-4.42c.67-1.28,1.35-2.55,2-3.82l2.29-4.31,2-3.7q1.23-2.33,2.45-4.65c.67-1.27,1.33-2.55,2-3.83l.09-.17c.73-1.34,1.45-2.68,2.18-4a1,1,0,0,0,0-1.06c-.27-.47-.52-1-.78-1.43q-1.06-2-2.11-4l-2.15-4-2.11-4c-.71-1.35-1.43-2.69-2.14-4s-1.41-2.66-2.12-4l-2.28-4.32-2.09-3.92q-1.1-2.07-2.2-4.14l-2-3.87L206,21.12l-1.23-2.32a1.43,1.43,0,0,0-.15-.22A7.51,7.51,0,0,0,203,18.59Zm-52.5,63.12c-.12.22-.22.38-.3.54q-4.44,8.88-8.87,17.76c-.43.85-.43.85-1.39.85H91.16c-.1,0-.21,0-.31,0a.63.63,0,0,1-.63-.32c-.13-.19-.23-.4-.34-.6q-3.64-7.32-7.3-14.62-3.06-6.1-6.11-12.21a3,3,0,0,0-.36-.63A8.8,8.8,0,0,0,76,75.07a3.16,3.16,0,0,0,.24.9,5.12,5.12,0,0,0,.31.62q6,11.93,11.93,23.86c.23.46.47.93.69,1.4a.84.84,0,0,0,.85.52c.35,0,.71,0,1.06,0H141.4a.93.93,0,0,0,.82-.5c.07-.14.15-.29.22-.44q1.53-3.09,3-6.18l1.71-3.42,3.19-6.38a2.62,2.62,0,0,0,.24-.64,13.92,13.92,0,0,0,.11-2.5A.83.83,0,0,0,150.52,81.71ZM79.45,50.8c.16-.29.27-.49.37-.7q2-3.89,3.89-7.78c2.12-4.24,4.25-8.47,6.35-12.72.2-.38.41-.61.86-.54a4.17,4.17,0,0,0,.5,0h44c1.58,0,3.17,0,4.76,0a1,1,0,0,1,1.08.67c.07.17.16.34.25.51l8.2,16.41a1.39,1.39,0,0,0,.39.59h1.29c.11,0,.22,0,.28-.17s-.18-.38-.28-.58l-2.07-4.15q-3.41-6.84-6.79-13.68c-.11-.22-.24-.44-.36-.66a1.07,1.07,0,0,0-.94-.53H90a1.05,1.05,0,0,0-1,.66,2.44,2.44,0,0,1-.14.28Q83.92,38.3,79,48.18a2.62,2.62,0,0,0-.21.45,1.28,1.28,0,0,0,0,.61A6,6,0,0,0,79.45,50.8ZM76,81.14c0,.25,0,.36-.06.48,0,.62,0,1.25,0,1.88a2.68,2.68,0,0,0,.33,1.38l.78,1.57,9.57,19.15c.39.78.4.78,1.23.78h55.87a.83.83,0,0,0,.84-.53c.24-.51.5-1,.75-1.51l8-16.08a4,4,0,0,0,.23-.51,1,1,0,0,0,0-.34.39.39,0,0,0-.14-.06l-.37,0c-1.29,0-1-.2-1.57,1-.2.39-.35.8-.55,1.19q-3.56,7.14-7.13,14.28c-.07.13-.14.26-.2.39a1.19,1.19,0,0,1-1,.68H88.71a1.16,1.16,0,0,1-1.1-.69,2.44,2.44,0,0,0-.14-.28q-2.13-4.29-4.28-8.57-3.34-6.72-6.72-13.44A2.42,2.42,0,0,0,76,81.14Zm83.25,4.53a2.1,2.1,0,0,0,.57-.83l9.46-18.93c.48-1,.48-.92,0-1.86l-4.45-8.91a2.44,2.44,0,0,1-.14-.28.5.5,0,0,0-.53-.35c-.33,0-.67,0-1,0a1.12,1.12,0,0,0-.29.12c.07.17.11.31.17.43l.53,1.07,4,7.89a2,2,0,0,1,.26.89,2,2,0,0,1-.27.89l-5.21,10.41c-.95,1.91-1.91,3.81-2.85,5.72a2.2,2.2,0,0,0-.3.88c0,.91,0,1.83,0,2.75C159.17,85.58,159.2,85.6,159.25,85.67ZM68.3,78.19c0-.91,0-1.7,0-2.49A2.89,2.89,0,0,0,68,74.26c-1.44-2.85-2.86-5.71-4.3-8.55a1.31,1.31,0,0,1,0-1.47,1.29,1.29,0,0,0,.09-.16q2-4.09,4.09-8.18l.22-.44a5,5,0,0,0,.33-1.52,8.33,8.33,0,0,1-.09-1.8c0-.1,0-.19,0-.32-.3.1-.36.33-.46.53-2,4-4,7.95-6,11.92a1.24,1.24,0,0,0,0,1.3,1.83,1.83,0,0,1,.14.28q2.91,5.82,5.83,11.64a4.74,4.74,0,0,0,.26.5C68.1,78,68.16,78.07,68.3,78.19Zm90.89-2a.87.87,0,0,0,.45-.54l5-10.07.12-.23a.83.83,0,0,0,0-.72c-.09-.21-.18-.42-.28-.63s-.22-.4-.33-.6l-4-8.06c-.08-.17-.16-.34-.25-.51-.2-.36-.31-.39-.79-.19,0,.36,0,.73,0,1.1a3.29,3.29,0,0,0,.41,1.74c1.08,2.12,2.14,4.25,3.2,6.38.11.22.19.46.3.68a.83.83,0,0,1,0,.78c-.06.11-.11.23-.17.34-.64,1.27-1.27,2.54-1.91,3.8-.48,1-1,2-1.45,2.92a2.73,2.73,0,0,0-.34,1.37c0,.65,0,1.3,0,1.94C159.15,75.84,159.17,76,159.19,76.2ZM68.24,68.82a7,7,0,0,0,.12-2.6,9.89,9.89,0,0,1,0-2.43,19,19,0,0,0,.07-2c0-.25-.05-.33-.26-.62a3.6,3.6,0,0,0-.22.37c-.48.94-.94,1.9-1.44,2.84a1,1,0,0,0,0,1.06c.51,1,1,2,1.49,3A3.27,3.27,0,0,0,68.24,68.82ZM173.81,58.31l.12,0c0-1,0-2,0-2.94a1.16,1.16,0,0,0-.14-.47c-.19-.42-.4-.82-.61-1.23-.43-.86-.85-1.72-1.29-2.58,0-.09-.06-.25-.24-.23s-.09.23-.09.34c0,.71,0,1.42,0,2.13a2.26,2.26,0,0,0,.24,1.09c.61,1.21,1.21,2.42,1.82,3.64C173.67,58.12,173.75,58.21,173.81,58.31Zm-14.62,4c0,.17,0,.27,0,.36v4.62c0,.11,0,.25.17.33a1.16,1.16,0,0,0,.09-.14c.33-.66.67-1.33,1-2a1.2,1.2,0,0,0,.05-.91,1.48,1.48,0,0,0-.13-.35c-.31-.61-.64-1.21-1-1.81C159.35,62.37,159.3,62.36,159.19,62.3ZM53.49,56.72a1.73,1.73,0,0,0,.43-.68,7.05,7.05,0,0,0,.36-.73,1.64,1.64,0,0,0,.29-.74,1.94,1.94,0,0,0-1.14,0,17.35,17.35,0,0,0,0,1.91C53.4,56.59,53.45,56.64,53.49,56.72Z" transform="translate(-0.14 -0.14)"/><path class="961f749d-ecbe-4465-a64e-1753278cebf5" d="M98,85.6l0-.06a.14.14,0,0,1,0-.06V59.17s0-.08,0-.12A.2.2,0,0,0,98,59c-.14,0-.17.05-.21.15l-1.5,4Q92.63,73,89,82.76l-.19.49c-.61.07-1.21,0-1.81,0s-1.25,0-1.88,0H83.28Q79,71.08,74.8,59c-.17,0-.15.09-.15.16s0,.42,0,.63V85.57a2,2,0,0,1-.3.06H69.89a.85.85,0,0,1-.17,0l0,0a.14.14,0,0,1,0-.06q0-18.17,0-36.33a1,1,0,0,1,0-.24s0,0,0-.08h7.34l9.47,26.92c.09-.19.17-.3.21-.42l4.35-11.8q2.6-7,5.18-14.09c.07-.19.15-.38.22-.54l.07-.06.06,0h6.08l.22,0c.15.1.11.24.11.35s0,.25,0,.38v36a2.3,2.3,0,0,1-.32,0A40.38,40.38,0,0,1,98,85.6Z" transform="translate(-0.14 -0.14)"/><path class="961f749d-ecbe-4465-a64e-1753278cebf5" d="M175.31,85.64a2,2,0,0,1,0-.31c-.08-2.68,0-35.86,0-36.45a.82.82,0,0,1,.53-.1h7.46c1.37,0,2.75,0,4.13.1A13.39,13.39,0,0,1,192.09,50a7.51,7.51,0,0,1,4.24,4.82,8.12,8.12,0,0,1-.15,5.11,10.2,10.2,0,0,1-4.88,5.72c-.34.19-.7.37-1.09.57a3.15,3.15,0,0,0,.31.2c.62.29,1.26.56,1.87.87A9.56,9.56,0,0,1,196.92,72a9.75,9.75,0,0,1-1.36,10.4,8.21,8.21,0,0,1-5.05,2.89,23.33,23.33,0,0,1-4.17.36c-3.42,0-6.85,0-10.27,0A2.81,2.81,0,0,1,175.31,85.64Zm5.86-4.22c1,0,1.91,0,2.84,0a25.08,25.08,0,0,0,3.87-.35,4.59,4.59,0,0,0,3.69-2.93,6.7,6.7,0,0,0,.48-2.5,6.12,6.12,0,0,0-1.75-4.3A9.21,9.21,0,0,0,186.81,69a13,13,0,0,0-5.47-.75.85.85,0,0,0-.21.07c0,.12,0,.24,0,.36C181,72.7,181.07,80.72,181.17,81.42Zm0-16.67c.18,0,.32,0,.47,0,.85,0,1.71-.07,2.56-.13a8.88,8.88,0,0,0,2.74-.58,6.1,6.1,0,0,0,3.61-3.75,6.93,6.93,0,0,0,.28-3.1,4,4,0,0,0-2-3,5.26,5.26,0,0,0-1.13-.52,10.19,10.19,0,0,0-2.5-.51,29.36,29.36,0,0,0-3.38-.1c-.22,0-.45,0-.66,0C181.09,53.62,181.08,64.11,181.16,64.75Z" transform="translate(-0.14 -0.14)"/><path class="961f749d-ecbe-4465-a64e-1753278cebf5" d="M134.05,80.71c.06.81,0,4.43,0,4.91a1.57,1.57,0,0,1-.23,0H112c0-.17-.07-.31-.08-.45V81.45a2.59,2.59,0,0,1,.28-1.08A23.22,23.22,0,0,1,115,76a42.92,42.92,0,0,1,4.9-5.36c.94-.88,1.91-1.74,2.87-2.61a31.47,31.47,0,0,0,3-3.08,10.71,10.71,0,0,0,2.12-3.8,8.45,8.45,0,0,0,.22-4.57,5.25,5.25,0,0,0-4.16-4,10.69,10.69,0,0,0-4.84.07,20,20,0,0,0-4.88,1.89L113.1,55l-.19.08-.09,0a.13.13,0,0,1,0-.06c0-1.57,0-3.13,0-4.7,0-.08,0-.16,0-.26a26.07,26.07,0,0,1,8.59-2,15.68,15.68,0,0,1,5.58.59,10,10,0,0,1,6.26,5.48,9,9,0,0,1,.77,3,11.34,11.34,0,0,1-.95,6A13.48,13.48,0,0,1,131,66.27a21.82,21.82,0,0,1-2,2c-1.8,1.58-3.62,3.15-5.41,4.75-.83.74-1.62,1.51-2.41,2.28a13.59,13.59,0,0,0-3.1,4.8,2.63,2.63,0,0,0-.09.3.53.53,0,0,0,0,.12l0,0,0,0H134Z" transform="translate(-0.14 -0.14)"/><path class="961f749d-ecbe-4465-a64e-1753278cebf5" d="M170.14,48.86a34.84,34.84,0,0,1,0,4.23c-.4,0-.81,0-1.22,0h-11c0,.16,0,.27,0,.39V85c0,.23,0,.45,0,.67-.5.08-5.13.09-5.81,0-.06-.76,0-1.53,0-2.29s0-1.55,0-2.32V53.2a1.11,1.11,0,0,0-.69-.08H139.69a26.28,26.28,0,0,1-.06-4.24,3.43,3.43,0,0,1,.34-.06h29.5A2.52,2.52,0,0,1,170.14,48.86Z" transform="translate(-0.14 -0.14)"/><path class="961f749d-ecbe-4465-a64e-1753278cebf5" d="M64.53,48.82V53a11.22,11.22,0,0,1-1.15,0H52.22c-.06,0-.08.06-.09.08a.13.13,0,0,0,0,.06.53.53,0,0,0,0,.13,2,2,0,0,0,0,.25V85.37a.49.49,0,0,1,0,.12s0,0,0,.1a1.07,1.07,0,0,1-.27.07H46.61a2.11,2.11,0,0,1-.28,0V53.21c-.2-.22-.4-.15-.57-.15H34.54l-.6,0a34,34,0,0,1,0-4.17.86.86,0,0,1,.23,0Z" transform="translate(-0.14 -0.14)"/><path class="b16a25a5-c5cb-4bf9-985e-63f62d1cad9a" d="M167.3,54.6a1.83,1.83,0,0,1,.89-.08c.76,0,.69-.08,1,.63l4,8.06c.13.26.27.52.41.77a1.57,1.57,0,0,1,.13,1.44c-.1.26-.21.5-.33.75L151.58,110c-.58,1.16-1.16,2.32-1.73,3.48-.08.14-.15.29-.23.44a1,1,0,0,1-.82.51H82.21a1,1,0,0,1-.91-.55c-.09-.16-.17-.33-.26-.5L58.66,68.59c-.51-1-1-2.06-1.55-3.07a1.18,1.18,0,0,1,0-1.18l.51-1,4.08-8.18c.36-.71.29-.64,1-.63a1.84,1.84,0,0,1,.89.08,2.2,2.2,0,0,1-.12.41q-.33.7-.69,1.41L59,64.09a1.7,1.7,0,0,0-.24.83,1.87,1.87,0,0,0,.25.83c1,2,2,4.07,3,6.1Q65,77.76,68,83.67a2.89,2.89,0,0,1,.34,1.44c0,.52,0,1,0,1.56,0,.3.13.41.43.4a1,1,0,0,0,.3,0,.64.64,0,0,1,.75.32,3.93,3.93,0,0,1,.26.5Q76.11,100,82.18,112.09c.35.7.35.7,1.15.7h65a1.87,1.87,0,0,0,.42-.67L154.8,100l17.06-34.12a1.91,1.91,0,0,0,.32-.87,1.77,1.77,0,0,0-.2-.9c-.68-1.32-1.33-2.65-2-4l-2.43-4.88A1.42,1.42,0,0,1,167.3,54.6Z" transform="translate(-0.14 -0.14)"/><path class="cbd34448-8951-47c6-8d94-3b3ef1864f83" d="M173.91,71.54c0,.12,0,.24,0,.36,0,.46,0,.92,0,1.38a5.27,5.27,0,0,1-.67,2.83l-5.85,11.7-14.79,29.58c-.07.13-.14.26-.2.39a1,1,0,0,1-.93.62c-.23,0-.46,0-.69,0H80.26a2.43,2.43,0,0,1-.8-.09.91.91,0,0,1-.52-.42c-.08-.15-.15-.3-.23-.44-1-2.08-2.07-4.15-3.1-6.23-.57-1.16-1.12-2.33-1.7-3.49-2.14-4.27-4.3-8.53-6.44-12.8-.67-1.33-1.29-2.67-2-4-1.72-3.43-3.47-6.85-5.18-10.28-2.2-4.39-4.37-8.79-6.55-13.18a3.57,3.57,0,0,1-.4-1.69c0-.58,0-1.17,0-1.75a3.86,3.86,0,0,1,.46-1.92L55.38,59c.65-1.29,1.29-2.58,1.93-3.87a3.75,3.75,0,0,1,.24-.44.42.42,0,0,1,.23-.19,6.64,6.64,0,0,1,1.6,0c-.1.23-.17.42-.26.6q-2.1,4.21-4.21,8.41c-.13.26-.25.52-.39.78a1.15,1.15,0,0,0,0,1c.11.25.21.5.33.75q9.51,19,19,38l5.83,11.65c0,.1.09.19.14.28a1.37,1.37,0,0,0,1.31.81h68.6a4.87,4.87,0,0,0,.93-.08,1,1,0,0,0,.76-.58c.08-.15.16-.3.23-.45L173.3,72.43a8.11,8.11,0,0,1,.49-.92Z" transform="translate(-0.14 -0.14)"/><path class="cbd34448-8951-47c6-8d94-3b3ef1864f83" d="M53.42,72.87a3.21,3.21,0,0,1,.25.27c.12.22.23.44.34.67L77.12,120a1.47,1.47,0,0,1,.1.22.81.81,0,0,0,.89.54h74.61a1,1,0,0,0,1.06-.65q9.74-19.53,19.51-39a3,3,0,0,1,.55-.9c.15,0,.09.17.09.26,0,.48,0,1,0,1.44a5.27,5.27,0,0,1-.62,2.64q-1.84,3.7-3.7,7.4L155,121.17a5.85,5.85,0,0,1-.28.56,1.1,1.1,0,0,1-1,.56H77.63a2.46,2.46,0,0,1-.93-.09.68.68,0,0,1-.42-.34c-.07-.15-.15-.3-.23-.45Q64.92,99.15,53.78,76.89a3.39,3.39,0,0,1-.4-1.68c0-.6,0-1.21,0-1.82C53.39,73.27,53.4,73.15,53.42,72.87Z" transform="translate(-0.14 -0.14)"/><path class="b16a25a5-c5cb-4bf9-985e-63f62d1cad9a" d="M56.67,47.22a1.27,1.27,0,0,1,.23-.74l3-6,16-32c.12-.25.25-.49.37-.73a.45.45,0,0,1,.44-.28h76.93c.72,0,.74,0,1.09.62.2.34.34.72.51,1.07l4.15,8.29,14.45,28.9c.15.3.29.6.44.92a2.34,2.34,0,0,1-.15.27,1.1,1.1,0,0,0-.22.94,1.59,1.59,0,0,1,.06.37c0,.25-.08.51-.13.79-.23-.1-.26-.3-.34-.46-.88-1.73-1.74-3.47-2.61-5.21L154,9.94a3.19,3.19,0,0,0-.58-.93H78.16a1,1,0,0,0-1.07.61,2.87,2.87,0,0,0-.2.39c-.24.51-.47,1-.72,1.53Q67.47,29,58.76,46.38l-.32.61a.45.45,0,0,1-.36.23C57.63,47.24,57.17,47.24,56.67,47.22Z" transform="translate(-0.14 -0.14)"/><path class="cbd34448-8951-47c6-8d94-3b3ef1864f83" d="M61.45,47.23a2.46,2.46,0,0,1,.34-1l5.49-11,11.4-22.8.32-.61a.53.53,0,0,1,.51-.3h71.85c.84,0,.72-.08,1.09.66Q161,29.34,169.62,46.52a1.94,1.94,0,0,1,.26.61c-.19.15-.39.09-.57.1s-.42,0-.62,0a.64.64,0,0,1-.69-.43c-.15-.32-.32-.63-.47-.95q-8-15.89-15.88-31.76c-.14-.26-.27-.52-.4-.79a.45.45,0,0,0-.45-.27H80.89c-.7,0-.7,0-1,.61L69.44,34.53q-3,6-6,12c-.4.81-.42.71-1.14.71Z" transform="translate(-0.14 -0.14)"/><path class="cbd34448-8951-47c6-8d94-3b3ef1864f83" d="M65.93,49.88c-.06-1,0-2-.08-3,.21-.43.45-.94.71-1.44Q73.78,31,81,16.55c0-.06.06-.11.08-.17.22-.77.82-.93,1.51-.95h2.75a4.18,4.18,0,0,1,1,.07,3.1,3.1,0,0,0,.68,0h61a3.77,3.77,0,0,0,.75,0,.69.69,0,0,1,.75.32,4.3,4.3,0,0,1,.32.6l12,24,3,6.05a1.29,1.29,0,0,1,.22.62c-.17.18-.37.12-.55.12-1.29,0-1,.18-1.53-.94Q156,32.12,148.87,18c-.1-.21-.19-.42-.31-.62a.54.54,0,0,0-.51-.29H83a.66.66,0,0,0-.62.35c-.09.16-.17.33-.26.5q-4.42,8.88-8.87,17.76-3.4,6.81-6.8,13.61l-.34.66Z" transform="translate(-0.14 -0.14)"/><path class="cbd34448-8951-47c6-8d94-3b3ef1864f83" d="M72.16,47.23H70.81a3.25,3.25,0,0,1-.36,0,5,5,0,0,1,.18-.48c.6-1.2,1.2-2.39,1.79-3.59L83.79,20.38,84,20a.86.86,0,0,1,.86-.51,4.13,4.13,0,0,0,.5,0h61.61a1.57,1.57,0,0,1,.43.65q2.16,4.3,4.31,8.62l8.79,17.59a2,2,0,0,1,.29.73.8.8,0,0,1-.26.09h-1.07A.42.42,0,0,1,159,47l-.32-.62L146.46,21.9c-.09-.19-.18-.38-.28-.56a.54.54,0,0,0-.52-.29H86.53c-.21,0-.42,0-.63,0a.92.92,0,0,0-.88.48c-.12.22-.25.43-.37.66C82.87,25.77,81.1,29.36,79.31,33q-3.36,6.75-6.74,13.49C72.45,46.69,72.32,46.92,72.16,47.23Z" transform="translate(-0.14 -0.14)"/><path class="b16a25a5-c5cb-4bf9-985e-63f62d1cad9a" d="M75.2,47.14a1.61,1.61,0,0,1,.1-.35c.18-.38.36-.75.55-1.13Q81.19,35,86.51,24.32a1.34,1.34,0,0,1,1.41-.88H143a8.5,8.5,0,0,1,.87.07.94.94,0,0,1,.64.46c.09.14.15.3.23.45l3.58,7.17,7.38,14.85a1.46,1.46,0,0,1,.25.67.75.75,0,0,1-.2.1h-1.34c-.12-.23-.24-.44-.35-.66Q149,36.3,143.85,26.06c-.5-1-.5-1-1.62-1H88.68c-.77,0-.68-.07-1,.65L77.26,46.47c-.44.87-.42.76-1.24.76A1.58,1.58,0,0,1,75.2,47.14Z" transform="translate(-0.14 -0.14)"/><path class="cbd34448-8951-47c6-8d94-3b3ef1864f83" d="M158.37,87.41a.92.92,0,0,1,0,.29c-.08.19-.18.38-.27.56q-4.81,9.64-9.63,19.27c-.32.64-.61,1.28-.92,1.92a2.7,2.7,0,0,1-.17.34,1.09,1.09,0,0,1-1,.6H85.38a1.45,1.45,0,0,1-1.62-1Q78.39,98.62,73,87.85a2.21,2.21,0,0,1-.28-.72,8.22,8.22,0,0,1,1.56,0,1.38,1.38,0,0,1,.42.63l3.39,6.78c2.22,4.44,4.45,8.88,6.64,13.33a1.68,1.68,0,0,0,1.71,1.06h58.44a5.29,5.29,0,0,0,.8-.08.75.75,0,0,0,.58-.44l.25-.5q5-9.92,9.91-19.83c.4-.79.25-.69,1.13-.69A1.84,1.84,0,0,1,158.37,87.41Z" transform="translate(-0.14 -0.14)"/><path class="cbd34448-8951-47c6-8d94-3b3ef1864f83" d="M47.71,110H46c-.17-.28-.36-.55-.51-.85-.66-1.23-1.29-2.48-1.94-3.72q-1.2-2.3-2.42-4.59c-.73-1.38-1.47-2.76-2.2-4.15l-2.09-3.92-2.14-4q-1.12-2.13-2.26-4.26l-2-3.81L28.07,76.2,26.3,72.89c-.82-1.52-1.65-3-2.47-4.57-.5-.94-1-1.89-1.49-2.82a1,1,0,0,1,0-1.11c.72-1.32,1.42-2.65,2.13-4l2.36-4.48L29,51.84l2.09-3.92,2.17-4.09,2.08-3.92,2.18-4.09,2.19-4.15q1.11-2.07,2.2-4.14c.69-1.29,1.37-2.59,2.06-3.87s1.49-2.75,2.24-4.13c.13-.25.25-.52.41-.77a.43.43,0,0,1,.29-.2,14.42,14.42,0,0,1,1.47,0,.7.7,0,0,1-.16.57c-.39.72-.79,1.42-1.17,2.14-.52,1-1,1.92-1.52,2.88q-1.34,2.55-2.68,5.1l-2.16,4.09q-1.12,2.1-2.23,4.2c-.68,1.27-1.36,2.54-2,3.81l-2.23,4.2-2.14,4Q31,51.71,29.83,53.84c-.64,1.22-1.29,2.43-1.94,3.65L25.35,62.3c-.22.42-.48.83-.72,1.24l-.32.61a1.66,1.66,0,0,0,0,1.67l1.51,2.81c.06.11.13.22.18.33.75,1.44,1.49,2.89,2.25,4.33s1.54,2.92,2.31,4.37c.64,1.22,1.3,2.43,1.94,3.65l2.43,4.59c.67,1.27,1.35,2.54,2,3.81s1.48,2.8,2.23,4.2,1.36,2.58,2,3.87l2.2,4.14,2.08,3.92,1.89,3.54C47.52,109.56,47.59,109.75,47.71,110Z" transform="translate(-0.14 -0.14)"/><path class="b16a25a5-c5cb-4bf9-985e-63f62d1cad9a" d="M39.7,110H38.4L38,110a4.31,4.31,0,0,1-.58-.9l-2-3.94q-1.14-2.16-2.29-4.31L30.9,96.64l-2.14-4-2.15-4q-1-2-2.11-4c-.71-1.35-1.43-2.69-2.14-4l-2.11-4-2.15-4L15.85,68.3l-1.8-3.37c-.07-.13-.14-.25-.2-.39a.91.91,0,0,1,.06-.83c.51-.92,1-1.84,1.48-2.76q1.32-2.49,2.62-5L20.09,52,22.27,48l2.19-4.14q1.11-2.07,2.2-4.15l2.06-3.86,2.2-4.15,2.17-4.09q1.11-2.1,2.23-4.2c.67-1.27,1.35-2.54,2-3.81.17-.33.37-.64.56-1a7.89,7.89,0,0,1,1.68,0,3.25,3.25,0,0,1-.12.43l-2,3.68-.11.22c-.73,1.41-1.45,2.82-2.19,4.22S33.71,29.88,33,31.24l-2.08,3.92q-1.15,2.16-2.29,4.32l-2.11,4-2.14,4c-.71,1.32-1.41,2.65-2.12,4s-1.44,2.72-2.17,4.08-1.36,2.58-2,3.87-1.5,2.8-2.26,4.19a1.12,1.12,0,0,0-.06,1.12c.1.21.2.41.31.62l2,3.81,2.37,4.48,2,3.75,2.41,4.46L25.93,84q1.3,2.46,2.6,4.92c.73,1.39,1.47,2.77,2.2,4.15l2.42,4.59q1.11,2.11,2.23,4.21t2.2,4.14c.6,1.14,1.22,2.28,1.82,3.42C39.5,109.56,39.57,109.75,39.7,110Z" transform="translate(-0.14 -0.14)"/><path class="cbd34448-8951-47c6-8d94-3b3ef1864f83" d="M31.47,110a10.56,10.56,0,0,1-1.68,0c-.16-.27-.33-.52-.49-.79-.26-.48-.52-1-.77-1.43-.58-1.09-1.14-2.19-1.71-3.28-.91-1.73-1.82-3.47-2.74-5.2-.68-1.3-1.37-2.58-2-3.87s-1.47-2.77-2.2-4.15l-2.06-3.87-2.31-4.36c-.71-1.33-1.41-2.66-2.12-4L11.2,75l-2.11-4L6.94,67c-.3-.57-.6-1.15-.92-1.71a.78.78,0,0,1,0-.82c.69-1.27,1.36-2.54,2-3.81L10.52,56c.63-1.2,1.28-2.39,1.91-3.59l2.46-4.64c.67-1.28,1.35-2.55,2-3.82l2.22-4.2,2.06-3.87,2.31-4.36,2.09-3.93c.72-1.36,1.44-2.73,2.17-4.09l1.86-3.47c.22-.41.45-.8.66-1.21a.49.49,0,0,1,.49-.31H32a.67.67,0,0,1,.19.06,1.62,1.62,0,0,1-.26.63c-.41.75-.83,1.5-1.23,2.25-.57,1.07-1.12,2.15-1.69,3.22-.76,1.46-1.53,2.91-2.3,4.37S25.12,32,24.33,33.51c-.67,1.28-1.35,2.55-2,3.82s-1.49,2.8-2.23,4.2L18,45.4l-2.2,4.14-2.05,3.87-2.21,4.14L9.37,61.7c-.46.85-.91,1.69-1.39,2.52A1.39,1.39,0,0,0,8,65.7c.64,1.17,1.27,2.35,1.89,3.53s1.38,2.57,2.06,3.87L14.5,78c.76,1.46,1.53,2.91,2.3,4.37L19,86.54c.67,1.25,1.34,2.5,2,3.76l2.26,4.25,2.11,4q1.14,2.16,2.29,4.32c.61,1.16,1.24,2.31,1.86,3.47l1.63,3C31.28,109.53,31.35,109.72,31.47,110Z" transform="translate(-0.14 -0.14)"/><path class="cbd34448-8951-47c6-8d94-3b3ef1864f83" d="M198.77,18.65c.07,0,.1-.09.14-.09h1.44a1.9,1.9,0,0,1,.47.65L202.3,22c.84,1.58,1.67,3.17,2.51,4.76l2.37,4.48c.72,1.36,1.44,2.73,2.17,4.09l2.08,3.92,2.17,4.09c.7,1.31,1.39,2.62,2.09,3.92s1.45,2.73,2.17,4.09,1.48,2.8,2.23,4.2,1.35,2.54,2,3.81,1.25,2.36,1.89,3.53c.32.58.65,1.16.93,1.81-.18.36-.36.73-.56,1.1s-.36.66-.54,1c-.59,1.12-1.17,2.26-1.77,3.38-.71,1.37-1.44,2.73-2.16,4.09l-2.23,4.2-2,3.81q-1.11,2.1-2.23,4.2l-2.14,4L209,94.81c-.67,1.25-1.34,2.5-2,3.75q-1.14,2.13-2.26,4.26c-.67,1.27-1.35,2.54-2,3.81L201,109.82a1.33,1.33,0,0,1-.12.16,2.68,2.68,0,0,1-.8,0,3.85,3.85,0,0,1-.77,0,.36.36,0,0,1,0-.44c.37-.7.75-1.4,1.13-2.09l.19-.33,1.57-3q1.23-2.36,2.48-4.7l1.17-2.22,2.34-4.42,2.05-3.87,2.2-4.14,2.09-3.93,2.17-4.09,2.08-3.92,2.2-4.14,1.72-3.2.2-.39a.84.84,0,0,0,0-.84c-.22-.4-.45-.8-.66-1.2-.73-1.39-1.44-2.78-2.16-4.17l-2.4-4.54-2.25-4.25-2.11-4-2.18-4.09-2.08-3.92c-.72-1.37-1.45-2.73-2.17-4.09l-2.09-3.93-2.28-4.31-2.14-4-1.32-2.42A2.82,2.82,0,0,1,198.77,18.65Z" transform="translate(-0.14 -0.14)"/><path class="cbd34448-8951-47c6-8d94-3b3ef1864f83" d="M44.22,18.61c-.06.16-.1.3-.16.42L42,22.9l-.17.33q-1.41,2.7-2.83,5.38l-2.08,3.92-2.17,4.09-2.2,4.15q-1.09,2.07-2.2,4.14L28.3,48.78q-1.11,2.07-2.2,4.14L23.93,57l-2.38,4.41c-.53,1-1,2-1.58,3a1.2,1.2,0,0,0,0,1.24c.74,1.33,1.46,2.67,2.19,4l1,2,1.71,3.27,2.74,5.21,1.08,2.05,2.31,4.36,2,3.7q1.15,2.16,2.29,4.32l2.11,4,2.29,4.31c.63,1.2,1.27,2.39,1.91,3.59.48.9,1,1.79,1.46,2.69a3.25,3.25,0,0,1,.36.78,3.62,3.62,0,0,1-1.65.08c-.11-.17-.24-.35-.35-.55-.31-.57-.62-1.14-.92-1.71-.68-1.29-1.34-2.59-2-3.89l-2.4-4.53-2-3.87q-1.11-2.07-2.2-4.15c-.69-1.28-1.37-2.57-2.06-3.86s-1.47-2.77-2.2-4.15-1.46-2.76-2.2-4.14S24,76.41,23.23,75.05l-2.11-4L19,67c-.28-.53-.57-1.06-.85-1.6-.08-.14-.14-.3-.23-.49.18-.33.35-.69.54-1,.39-.71.79-1.41,1.17-2.13.69-1.29,1.34-2.6,2-3.89.8-1.51,1.62-3,2.43-4.52l1.06-2c.52-1,1-2,1.57-3l2.59-4.93,2.31-4.37q1.11-2.1,2.23-4.2c.66-1.25,1.33-2.5,2-3.75q1.13-2.13,2.26-4.26l2-3.75Q41.2,21,42.3,18.91a.57.57,0,0,1,.58-.37c.35,0,.71,0,1.06,0A1.29,1.29,0,0,1,44.22,18.61Z" transform="translate(-0.14 -0.14)"/><path class="b16a25a5-c5cb-4bf9-985e-63f62d1cad9a" d="M195,18.56h1.41a.43.43,0,0,1,.37.2,1.4,1.4,0,0,1,.16.26l1.35,2.55c.95,1.81,1.89,3.62,2.85,5.43l2,3.87,2.2,4.14,2.2,4.15,2.17,4.09,2.11,4q1.14,2.13,2.26,4.26l2,3.81q1.11,2.1,2.23,4.2c.66,1.25,1.34,2.5,2,3.75.42.82.44.72,0,1.61l-2.08,3.93q-1.29,2.43-2.57,4.87c-.64,1.2-1.28,2.39-1.91,3.59-.79,1.47-1.57,3-2.35,4.42l-2,3.76L207,89.9c-.71,1.34-1.42,2.69-2.14,4l-2.14,4c-.65,1.21-1.3,2.42-1.94,3.64l-2.43,4.59-1.8,3.37-.26.43a10.47,10.47,0,0,1-1.68,0,2,2,0,0,1,.1-.36c.64-1.22,1.3-2.43,1.94-3.65.85-1.6,1.69-3.21,2.54-4.82l1-1.93,2.6-4.93c.72-1.36,1.44-2.73,2.17-4.09s1.48-2.8,2.23-4.2l2-3.81q1.13-2.1,2.23-4.2l2.06-3.87c.73-1.38,1.46-2.77,2.2-4.15l2.05-3.86c.31-.58.61-1.15.93-1.71a.8.8,0,0,0,0-.88c-.47-.83-.92-1.68-1.37-2.52l-.15-.28-1.71-3.27q-1.22-2.3-2.42-4.6l-2.37-4.48q-1.12-2.13-2.26-4.26c-.71-1.34-1.42-2.69-2.14-4l-2.14-4-2.11-4q-1.14-2.13-2.26-4.26c-.71-1.35-1.43-2.69-2.14-4l-2-3.76c-.18-.35-.38-.69-.57-1A3.15,3.15,0,0,1,195,18.56Z" transform="translate(-0.14 -0.14)"/><path class="b16a25a5-c5cb-4bf9-985e-63f62d1cad9a" d="M191.06,18.56h1.41a.5.5,0,0,1,.42.24L193,19c.38.72.77,1.43,1.14,2.15.68,1.3,1.34,2.6,2,3.89l2.14,4c.71,1.32,1.41,2.65,2.12,4s1.42,2.69,2.14,4l2.11,4c.72,1.34,1.43,2.69,2.14,4s1.51,2.84,2.26,4.26l2.11,4,2.15,4,2.14,4c.38.72.75,1.44,1.14,2.15a.84.84,0,0,1,0,.89c-.48.85-.94,1.72-1.41,2.58l-.12.22-1.68,3.22c-.92,1.75-1.84,3.51-2.77,5.26-.68,1.29-1.36,2.58-2,3.87l-2.2,4.14-2.06,3.87L202,92l-2.11,4-2.15,4q-1,2-2.11,4l-2.14,4-.89,1.65a2.92,2.92,0,0,1-.21.32,3.27,3.27,0,0,1-.44,0h-1.23a1.64,1.64,0,0,1,.06-.33l1.53-2.88a2.34,2.34,0,0,0,.15-.27l1.52-2.88c.94-1.79,1.87-3.58,2.82-5.37.67-1.28,1.35-2.55,2-3.82s1.49-2.8,2.23-4.2,1.43-2.69,2.14-4,1.51-2.84,2.26-4.26c.66-1.23,1.32-2.46,2-3.7L209.75,74l2-3.81q1.13-2.1,2.23-4.2l.86-1.6a.7.7,0,0,0,0-.76c-.48-.86-.94-1.73-1.4-2.59l-.15-.27-1.71-3.28-2.57-4.87-2.22-4.2q-1.14-2.16-2.29-4.32l-2.08-3.92-2.17-4.09q-1.12-2.1-2.23-4.2c-.72-1.37-1.45-2.73-2.17-4.09l-2.08-3.92L191.74,20c-.17-.33-.36-.65-.54-1A4,4,0,0,1,191.06,18.56Z" transform="translate(-0.14 -0.14)"/><path class="cbd34448-8951-47c6-8d94-3b3ef1864f83" d="M186.72,18.6a9.63,9.63,0,0,1,1.6,0,1.9,1.9,0,0,1,.47.65c.5.94,1,1.89,1.48,2.83.83,1.57,1.65,3.14,2.48,4.7l2.43,4.6c.66,1.25,1.33,2.5,2,3.75l2.22,4.2,2.18,4.09q1,2,2.08,3.93L206,51.67,208,55.54c.73,1.38,1.47,2.76,2.2,4.15l2.08,3.92.62,1.1c-.16.27-.31.52-.44.78-.46.85-.9,1.69-1.35,2.54L208.55,73c-.73,1.39-1.47,2.77-2.2,4.15S205,79.72,204.26,81l-2,3.81c-.8,1.49-1.58,3-2.38,4.48-.62,1.18-1.25,2.36-1.88,3.53l-2.48,4.71c-.68,1.27-1.36,2.54-2,3.81s-1.49,2.8-2.23,4.2l-2.08,3.92-.26.47a4.76,4.76,0,0,1-1.78,0c0-.07,0-.15.08-.22s.19-.32.27-.49c.57-1.07,1.12-2.14,1.69-3.21l2.11-4q1.13-2.13,2.26-4.26c.67-1.27,1.35-2.54,2-3.81l2-3.7,2-3.81c.71-1.32,1.41-2.65,2.12-4s1.43-2.68,2.14-4L206.18,74l2.4-4.54c.62-1.18,1.26-2.35,1.89-3.53.14-.26.29-.51.43-.76a.82.82,0,0,0,0-.84c-.27-.51-.52-1-.79-1.56-.2-.37-.41-.73-.6-1.09l-2.74-5.21c-.69-1.31-1.39-2.62-2.09-3.92l-2.31-4.37-1.83-3.42-2.43-4.52c-.36-.66-.71-1.32-1.06-2-.53-1-1.05-2-1.57-3-.83-1.57-1.66-3.13-2.48-4.7l-1.14-2.16-2.37-4.48c-.64-1.22-1.29-2.43-1.94-3.64-.23-.43-.47-.84-.69-1.27A2.93,2.93,0,0,1,186.72,18.6Z" transform="translate(-0.14 -0.14)"/><path class="cbd34448-8951-47c6-8d94-3b3ef1864f83" d="M35.79,110a3.12,3.12,0,0,1-.35,0H34.07a2,2,0,0,1-.16-.23l-1-1.88L31,104.25c-.73-1.4-1.48-2.8-2.22-4.2S27.33,97.32,26.61,96,25.22,93.34,24.52,92,23.08,89.31,22.35,88l-2.22-4.21L18,79.66q-1-2-2.08-3.93c-.72-1.36-1.45-2.72-2.17-4.09S12.31,69,11.61,67.72L10,64.81c-.1-.19-.18-.38-.27-.57.27-.51.52-1,.78-1.5l.61-1.1L14,56.21c.36-.7.74-1.4,1.11-2.1L17.4,49.8l2-3.76,2.26-4.26,2.11-4q1.14-2.16,2.29-4.32L28,29.9l2.34-4.42,2-3.7c.57-1.06,1.16-2.12,1.74-3.2a9.2,9.2,0,0,1,1.66,0,1.24,1.24,0,0,1-.06.37c-.31.57-.62,1.14-.94,1.7l-.12.22c-.45.85-.9,1.69-1.34,2.54C32.6,24.6,32,25.79,31.37,27q-1.1,2.07-2.2,4.14c-.73,1.39-1.47,2.77-2.2,4.15S25.53,38,24.8,39.35l-2.11,4L20.8,46.86l-2.49,4.62-.09.17c-.6,1.17-1.21,2.34-1.82,3.5q-1.15,2.22-2.34,4.42t-2.3,4.3a.93.93,0,0,0-.06.73,1.3,1.3,0,0,0,.08.17c.41.77.82,1.54,1.24,2.31l.19.33c.59,1.13,1.17,2.26,1.77,3.38.8,1.51,1.62,3,2.43,4.52.32.58.63,1.17.94,1.76l1.83,3.5L22.52,85l2.08,3.93c.69,1.28,1.38,2.57,2.06,3.86s1.45,2.73,2.17,4.09l2.34,4.43c.68,1.29,1.36,2.58,2.06,3.86s1.4,2.56,2.09,3.85A5.94,5.94,0,0,1,35.79,110Z" transform="translate(-0.14 -0.14)"/><path class="b16a25a5-c5cb-4bf9-985e-63f62d1cad9a" d="M203,18.59a7.51,7.51,0,0,1,1.64,0,1.43,1.43,0,0,1,.15.22L206,21.12l2.82,5.38,2,3.87q1.11,2.07,2.2,4.14l2.09,3.92,2.28,4.32c.71,1.32,1.41,2.65,2.12,4s1.43,2.68,2.14,4l2.11,4,2.15,4q1,2,2.11,4c.26.48.51,1,.78,1.43a1,1,0,0,1,0,1.06c-.73,1.33-1.45,2.67-2.18,4l-.09.17c-.66,1.28-1.32,2.56-2,3.83q-1.22,2.32-2.45,4.65l-2,3.7-2.29,4.31c-.67,1.27-1.35,2.54-2,3.82q-1.18,2.2-2.35,4.42L211.5,98q-1.11,2.07-2.2,4.14l-2,3.65-2.08,3.92a2.14,2.14,0,0,1-.19.26,9.18,9.18,0,0,1-1.66,0,1.58,1.58,0,0,1,.09-.36l2.08-3.92q1.14-2.16,2.29-4.32l.88-1.65q1.37-2.61,2.74-5.21l2.11-4,2.28-4.31,2-3.7,2.4-4.54,2.06-3.87q1.1-2.07,2.2-4.14l2-3.87.58-1a.76.76,0,0,0,0-.82c-.53-.95-1-1.91-1.55-2.87-.28-.53-.58-1.06-.87-1.59L223.28,57l-2.85-5.43c-.67-1.27-1.35-2.54-2-3.81l-2.22-4.2-2.15-4-2.25-4.26c-.67-1.25-1.34-2.5-2-3.76L207.41,27l-1.94-3.64-2.1-3.85c-.11-.2-.22-.4-.31-.61A1.39,1.39,0,0,1,203,18.59Z" transform="translate(-0.14 -0.14)"/><path class="cbd34448-8951-47c6-8d94-3b3ef1864f83" d="M150.52,81.71a.83.83,0,0,1,.21.6,13.92,13.92,0,0,1-.11,2.5,2.62,2.62,0,0,1-.24.64l-3.19,6.38-1.71,3.42q-1.51,3.09-3,6.18c-.07.15-.15.3-.22.44a.93.93,0,0,1-.82.5H91c-.35,0-.71,0-1.06,0a.84.84,0,0,1-.85-.52c-.22-.47-.46-.94-.69-1.4q-6-11.94-11.93-23.86A5.12,5.12,0,0,1,76.2,76a3.16,3.16,0,0,1-.24-.9,8.8,8.8,0,0,1,.15-2.59,3,3,0,0,1,.36.63q3,6.11,6.11,12.21,3.65,7.31,7.3,14.62c.11.2.21.41.34.6a.63.63,0,0,0,.63.32c.1,0,.21,0,.31,0H140c1,0,1,0,1.39-.85q4.43-8.88,8.87-17.76C150.3,82.09,150.4,81.93,150.52,81.71Z" transform="translate(-0.14 -0.14)"/><path class="b16a25a5-c5cb-4bf9-985e-63f62d1cad9a" d="M79.45,50.8a6,6,0,0,1-.72-1.56,1.28,1.28,0,0,1,0-.61,2.62,2.62,0,0,1,.21-.45q5-9.88,9.88-19.78a2.44,2.44,0,0,0,.14-.28,1.05,1.05,0,0,1,1-.66h51.23a1.07,1.07,0,0,1,.94.53c.12.22.25.44.36.66q3.39,6.84,6.79,13.68l2.07,4.15c.1.2.2.4.28.58s-.17.17-.28.17h-1.29a1.39,1.39,0,0,1-.39-.59l-8.2-16.41c-.09-.17-.18-.34-.25-.51a1,1,0,0,0-1.08-.67c-1.59,0-3.18,0-4.76,0h-44a4.17,4.17,0,0,1-.5,0c-.45-.07-.66.16-.86.54-2.1,4.25-4.23,8.48-6.35,12.72q-1.93,3.9-3.89,7.78C79.72,50.31,79.61,50.51,79.45,50.8Z" transform="translate(-0.14 -0.14)"/><path class="cbd34448-8951-47c6-8d94-3b3ef1864f83" d="M76,81.14a2.42,2.42,0,0,1,.47.75q3.36,6.72,6.72,13.44,2.15,4.28,4.28,8.57a2.44,2.44,0,0,1,.14.28,1.16,1.16,0,0,0,1.1.69h53.87a1.19,1.19,0,0,0,1-.68c.06-.13.13-.26.2-.39q3.57-7.14,7.13-14.28c.2-.39.35-.8.55-1.19.61-1.2.28-1,1.57-1l.37,0a.39.39,0,0,1,.14.06,1,1,0,0,1,0,.34,4,4,0,0,1-.23.51l-8,16.08c-.25.5-.51,1-.75,1.51a.83.83,0,0,1-.84.53H87.85c-.83,0-.84,0-1.23-.78L77.05,86.45l-.78-1.57a2.68,2.68,0,0,1-.33-1.38c0-.63,0-1.26,0-1.88C76,81.5,76,81.39,76,81.14Z" transform="translate(-0.14 -0.14)"/><path class="cbd34448-8951-47c6-8d94-3b3ef1864f83" d="M159.25,85.67c-.05-.07-.08-.09-.08-.1,0-.92,0-1.84,0-2.75a2.2,2.2,0,0,1,.3-.88c.94-1.91,1.9-3.81,2.85-5.72l5.21-10.41a2,2,0,0,0,.27-.89,2,2,0,0,0-.26-.89l-4-7.89-.53-1.07c-.06-.12-.1-.26-.17-.43a1.12,1.12,0,0,1,.29-.12c.33,0,.67,0,1,0a.5.5,0,0,1,.53.35,2.44,2.44,0,0,0,.14.28l4.45,8.91c.47.94.47.9,0,1.86l-9.46,18.93A2.1,2.1,0,0,1,159.25,85.67Z" transform="translate(-0.14 -0.14)"/><path class="b16a25a5-c5cb-4bf9-985e-63f62d1cad9a" d="M68.3,78.19c-.14-.12-.2-.15-.22-.2a4.74,4.74,0,0,1-.26-.5Q64.9,71.67,62,65.85a1.83,1.83,0,0,0-.14-.28,1.24,1.24,0,0,1,0-1.3c2-4,4-7.95,6-11.92.1-.2.16-.43.46-.53,0,.13,0,.22,0,.32a8.33,8.33,0,0,0,.09,1.8,5,5,0,0,1-.33,1.52l-.22.44q-2,4.1-4.09,8.18a1.29,1.29,0,0,1-.09.16,1.31,1.31,0,0,0,0,1.47c1.44,2.84,2.86,5.7,4.3,8.55a2.89,2.89,0,0,1,.34,1.44C68.28,76.49,68.3,77.28,68.3,78.19Z" transform="translate(-0.14 -0.14)"/><path class="b16a25a5-c5cb-4bf9-985e-63f62d1cad9a" d="M159.19,76.2c0-.22,0-.36,0-.5,0-.64,0-1.29,0-1.94a2.73,2.73,0,0,1,.34-1.37c.49-1,1-2,1.45-2.92.64-1.26,1.27-2.53,1.91-3.8.06-.11.11-.23.17-.34a.83.83,0,0,0,0-.78c-.11-.22-.19-.46-.3-.68-1.06-2.13-2.12-4.26-3.2-6.38a3.29,3.29,0,0,1-.41-1.74c0-.37,0-.74,0-1.1.48-.2.59-.17.79.19.09.17.17.34.25.51l4,8.06c.11.2.23.4.33.6s.19.42.28.63a.83.83,0,0,1,0,.72l-.12.23-5,10.07A.87.87,0,0,1,159.19,76.2Z" transform="translate(-0.14 -0.14)"/><path class="b16a25a5-c5cb-4bf9-985e-63f62d1cad9a" d="M68.24,68.82A3.27,3.27,0,0,1,68,68.4c-.5-1-1-2-1.49-3a1,1,0,0,1,0-1.06c.5-.94,1-1.9,1.44-2.84a3.6,3.6,0,0,1,.22-.37c.21.29.26.37.26.62a19,19,0,0,1-.07,2,9.89,9.89,0,0,0,0,2.43A7,7,0,0,1,68.24,68.82Z" transform="translate(-0.14 -0.14)"/><path class="b16a25a5-c5cb-4bf9-985e-63f62d1cad9a" d="M173.81,58.31c-.06-.1-.14-.19-.2-.29-.61-1.22-1.21-2.43-1.82-3.64a2.26,2.26,0,0,1-.24-1.09c0-.71,0-1.42,0-2.13,0-.11,0-.25.09-.34s.19.14.24.23c.44.86.86,1.72,1.29,2.58.21.41.42.81.61,1.23a1.16,1.16,0,0,1,.14.47c0,1,0,2,0,2.94Z" transform="translate(-0.14 -0.14)"/><path class="b16a25a5-c5cb-4bf9-985e-63f62d1cad9a" d="M159.19,62.3c.11.06.16.07.18.1.32.6.65,1.2,1,1.81a1.48,1.48,0,0,1,.13.35,1.2,1.2,0,0,1-.05.91c-.33.67-.67,1.34-1,2a1.16,1.16,0,0,1-.09.14c-.21-.08-.17-.22-.17-.33V62.66C159.15,62.57,159.17,62.47,159.19,62.3Z" transform="translate(-0.14 -0.14)"/><path class="b16a25a5-c5cb-4bf9-985e-63f62d1cad9a" d="M53.49,56.72c0-.08-.09-.13-.09-.19a17.35,17.35,0,0,1,0-1.91,1.94,1.94,0,0,1,1.14,0,1.64,1.64,0,0,1-.29.74,7.05,7.05,0,0,1-.36.73A1.73,1.73,0,0,1,53.49,56.72Z" transform="translate(-0.14 -0.14)"/><path class="fafd1710-d656-4ab0-8b4f-a1673575c115" d="M181.17,81.42c-.1-.7-.13-8.72-.06-12.78,0-.12,0-.24,0-.36a.85.85,0,0,1,.21-.07,13,13,0,0,1,5.47.75,9.21,9.21,0,0,1,3.49,2.38,6.12,6.12,0,0,1,1.75,4.3,6.7,6.7,0,0,1-.48,2.5,4.59,4.59,0,0,1-3.69,2.93,25.08,25.08,0,0,1-3.87.35C183.08,81.44,182.14,81.42,181.17,81.42Z" transform="translate(-0.14 -0.14)"/><path class="fafd1710-d656-4ab0-8b4f-a1673575c115" d="M181.16,64.75c-.08-.64-.07-11.13,0-11.67.21,0,.44,0,.66,0a29.36,29.36,0,0,1,3.38.1,10.19,10.19,0,0,1,2.5.51,5.26,5.26,0,0,1,1.13.52,4,4,0,0,1,2,3,6.93,6.93,0,0,1-.28,3.1,6.1,6.1,0,0,1-3.61,3.75,8.88,8.88,0,0,1-2.74.58c-.85.06-1.71.09-2.56.13C181.48,64.77,181.34,64.75,181.16,64.75Z" transform="translate(-0.14 -0.14)"/></svg>